M48
; DRILL file {KiCad 9.0.4} date 2026-05-12T17:25:37+0800
; FORMAT={-:-/ absolute / metric / decimal}
; #@! TF.CreationDate,2026-05-12T17:25:37+08:00
; #@! TF.GenerationSoftware,Kicad,Pcbnew,9.0.4
; #@! TF.FileFunction,Plated,1,2,PTH
FMAT,2
METRIC
; #@! TA.AperFunction,Plated,PTH,ViaDrill
T1C1.000
; #@! TA.AperFunction,Plated,PTH,ComponentDrill
T2C1.000
%
G90
G05
T1
X65.96Y-83.82
X65.96Y-86.36
X65.96Y-88.9
X65.96Y-91.44
X65.96Y-93.98
X65.96Y-96.52
X73.66Y-78.74
X73.66Y-102.87
X78.74Y-78.74
X78.74Y-102.87
X83.82Y-78.74
X83.82Y-102.87
X88.9Y-78.74
X88.9Y-102.87
X93.98Y-78.74
X93.98Y-102.87
X99.06Y-78.74
X99.06Y-102.87
X104.14Y-78.74
X104.14Y-102.87
X109.22Y-78.74
X109.22Y-102.87
X114.3Y-78.74
X114.3Y-102.87
X119.38Y-78.74
X119.38Y-102.87
X124.46Y-78.74
X124.46Y-102.87
X129.54Y-78.74
X129.54Y-102.87
X134.62Y-78.74
X134.62Y-102.87
X139.7Y-78.74
X139.7Y-102.87
X144.78Y-78.74
X144.78Y-102.87
X149.86Y-78.74
X149.86Y-102.87
X154.94Y-78.74
X154.94Y-102.87
X160.02Y-78.74
X160.02Y-102.87
X165.1Y-78.74
X165.1Y-102.87
X170.18Y-78.74
X170.18Y-102.87
X175.26Y-78.74
X175.26Y-102.87
X180.34Y-78.74
X180.34Y-102.87
X185.42Y-78.74
X185.42Y-102.87
X190.5Y-78.74
X190.5Y-102.87
X195.58Y-78.74
X195.58Y-102.87
X200.66Y-78.74
X200.66Y-102.87
X205.74Y-78.74
X205.74Y-102.87
X210.82Y-78.74
X210.82Y-102.87
X215.9Y-78.74
X215.9Y-102.87
X220.98Y-83.82
X220.98Y-86.36
X220.98Y-88.9
X220.98Y-91.44
X220.98Y-93.98
X220.98Y-96.52
T2
X76.24Y-89.672
X78.74Y-89.672
X78.74Y-87.172
X78.74Y-92.172
X81.24Y-89.672
X101.64Y-89.672
X104.14Y-89.672
X104.14Y-87.172
X104.14Y-92.172
X106.64Y-89.672
X127.04Y-89.672
X129.54Y-89.672
X129.54Y-87.172
X129.54Y-92.172
X132.04Y-89.672
X152.44Y-89.672
X154.94Y-89.672
X154.94Y-87.172
X154.94Y-92.172
X157.44Y-89.672
X177.84Y-89.672
X180.34Y-89.672
X180.34Y-87.172
X180.34Y-92.172
X182.84Y-89.672
X203.24Y-89.672
X205.74Y-89.672
X205.74Y-87.172
X205.74Y-92.172
X208.24Y-89.672
M30
