%TF.GenerationSoftware,KiCad,Pcbnew,9.0.4*%
%TF.CreationDate,2026-05-12T17:25:34+08:00*%
%TF.ProjectId,TTR9-Can1 Signal Box,54545239-2d43-4616-9e31-205369676e61,v1.0*%
%TF.SameCoordinates,Original*%
%TF.FileFunction,Legend,Top*%
%TF.FilePolarity,Positive*%
%FSLAX46Y46*%
G04 Gerber Fmt 4.6, Leading zero omitted, Abs format (unit mm)*
G04 Created by KiCad (PCBNEW 9.0.4) date 2026-05-12 17:25:34*
%MOMM*%
%LPD*%
G01*
G04 APERTURE LIST*
%ADD10C,0.200000*%
%ADD11C,0.050000*%
%ADD12C,0.100000*%
G04 APERTURE END LIST*
D10*
G36*
X128024502Y-101081504D02*
G01*
X127825797Y-101081504D01*
X127925149Y-100783446D01*
X128024502Y-101081504D01*
G37*
G36*
X132088641Y-101773568D02*
G01*
X126475943Y-101773568D01*
X126475943Y-100895790D01*
X126587054Y-100895790D01*
X126587054Y-101038647D01*
X126587389Y-101042049D01*
X126587172Y-101043508D01*
X126588251Y-101050805D01*
X126588975Y-101058156D01*
X126589539Y-101059519D01*
X126590040Y-101062901D01*
X126637659Y-101253376D01*
X126638172Y-101254813D01*
X126638224Y-101255536D01*
X126641332Y-101263660D01*
X126644254Y-101271837D01*
X126644684Y-101272417D01*
X126645230Y-101273844D01*
X126692849Y-101369082D01*
X126698131Y-101377474D01*
X126699144Y-101379918D01*
X126701400Y-101382667D01*
X126703292Y-101385672D01*
X126705286Y-101387401D01*
X126711581Y-101395071D01*
X126806819Y-101490311D01*
X126821972Y-101502747D01*
X126825291Y-101504122D01*
X126828007Y-101506477D01*
X126845907Y-101514468D01*
X126988764Y-101562087D01*
X126998436Y-101564286D01*
X127000878Y-101565298D01*
X127004415Y-101565646D01*
X127007879Y-101566434D01*
X127010513Y-101566246D01*
X127020387Y-101567219D01*
X127115625Y-101567219D01*
X127125498Y-101566246D01*
X127128132Y-101566434D01*
X127131595Y-101565646D01*
X127135134Y-101565298D01*
X127137576Y-101564286D01*
X127147248Y-101562087D01*
X127290104Y-101514468D01*
X127308005Y-101506477D01*
X127310720Y-101504122D01*
X127314040Y-101502747D01*
X127329193Y-101490310D01*
X127364790Y-101454712D01*
X127492601Y-101454712D01*
X127495367Y-101493632D01*
X127512817Y-101528531D01*
X127542293Y-101554096D01*
X127579309Y-101566434D01*
X127618229Y-101563668D01*
X127653128Y-101546218D01*
X127678693Y-101516742D01*
X127686684Y-101498842D01*
X127759130Y-101281504D01*
X128091168Y-101281504D01*
X128163614Y-101498841D01*
X128171605Y-101516742D01*
X128197170Y-101546218D01*
X128232069Y-101563667D01*
X128270989Y-101566434D01*
X128308005Y-101554095D01*
X128337481Y-101528530D01*
X128354931Y-101493631D01*
X128357697Y-101454711D01*
X128353350Y-101435596D01*
X128030558Y-100467219D01*
X128491816Y-100467219D01*
X128491816Y-101467219D01*
X128493737Y-101486728D01*
X128508669Y-101522776D01*
X128536259Y-101550366D01*
X128572307Y-101565298D01*
X128611325Y-101565298D01*
X128647373Y-101550366D01*
X128674963Y-101522776D01*
X128689895Y-101486728D01*
X128691816Y-101467219D01*
X128691816Y-100843775D01*
X129076420Y-101516833D01*
X129079338Y-101520943D01*
X129080097Y-101522776D01*
X129081963Y-101524642D01*
X129087767Y-101532818D01*
X129098283Y-101540962D01*
X129107687Y-101550366D01*
X129113574Y-101552804D01*
X129118616Y-101556709D01*
X129131448Y-101560208D01*
X129143735Y-101565298D01*
X129150111Y-101565298D01*
X129156260Y-101566975D01*
X129169453Y-101565298D01*
X129182753Y-101565298D01*
X129188641Y-101562858D01*
X129194966Y-101562055D01*
X129206515Y-101555454D01*
X129218801Y-101550366D01*
X129223308Y-101545858D01*
X129228843Y-101542696D01*
X129236987Y-101532179D01*
X129246391Y-101522776D01*
X129248829Y-101516888D01*
X129252734Y-101511847D01*
X129256233Y-101499014D01*
X129261323Y-101486728D01*
X129262305Y-101476750D01*
X129263000Y-101474204D01*
X129262749Y-101472236D01*
X129263244Y-101467219D01*
X129263244Y-100740426D01*
X129492601Y-100740426D01*
X129495367Y-100779346D01*
X129512816Y-100814245D01*
X129542293Y-100839809D01*
X129579309Y-100852148D01*
X129618229Y-100849382D01*
X129636537Y-100842376D01*
X129731775Y-100794757D01*
X129740171Y-100789471D01*
X129742611Y-100788461D01*
X129745357Y-100786207D01*
X129748365Y-100784314D01*
X129750094Y-100782319D01*
X129757765Y-100776025D01*
X129777530Y-100756260D01*
X129777530Y-101367219D01*
X129591816Y-101367219D01*
X129572307Y-101369140D01*
X129536259Y-101384072D01*
X129508669Y-101411662D01*
X129493737Y-101447710D01*
X129493737Y-101486728D01*
X129508669Y-101522776D01*
X129536259Y-101550366D01*
X129572307Y-101565298D01*
X129591816Y-101567219D01*
X130163244Y-101567219D01*
X130182753Y-101565298D01*
X130218801Y-101550366D01*
X130226219Y-101542948D01*
X130255642Y-101542948D01*
X130255642Y-101581966D01*
X130270574Y-101618014D01*
X130298164Y-101645604D01*
X130334212Y-101660536D01*
X130353721Y-101662457D01*
X131115625Y-101662457D01*
X131135134Y-101660536D01*
X131171182Y-101645604D01*
X131198772Y-101618014D01*
X131213704Y-101581966D01*
X131213704Y-101554830D01*
X131238974Y-101565298D01*
X131258483Y-101567219D01*
X131877530Y-101567219D01*
X131897039Y-101565298D01*
X131933087Y-101550366D01*
X131960677Y-101522776D01*
X131975609Y-101486728D01*
X131975609Y-101447710D01*
X131960677Y-101411662D01*
X131933087Y-101384072D01*
X131897039Y-101369140D01*
X131877530Y-101367219D01*
X131499905Y-101367219D01*
X131900622Y-100966501D01*
X131913058Y-100951347D01*
X131914432Y-100948028D01*
X131916788Y-100945313D01*
X131924779Y-100927413D01*
X131972398Y-100784556D01*
X131974597Y-100774883D01*
X131975609Y-100772442D01*
X131975957Y-100768904D01*
X131976745Y-100765441D01*
X131976557Y-100762806D01*
X131977530Y-100752933D01*
X131977530Y-100657695D01*
X131975609Y-100638186D01*
X131974233Y-100634865D01*
X131973979Y-100631282D01*
X131966973Y-100612973D01*
X131919354Y-100517736D01*
X131914068Y-100509339D01*
X131913058Y-100506899D01*
X131910804Y-100504153D01*
X131908911Y-100501145D01*
X131906913Y-100499412D01*
X131900621Y-100491746D01*
X131853003Y-100444127D01*
X131845332Y-100437832D01*
X131843603Y-100435838D01*
X131840595Y-100433944D01*
X131837849Y-100431691D01*
X131835409Y-100430680D01*
X131827013Y-100425395D01*
X131731775Y-100377776D01*
X131713467Y-100370770D01*
X131709883Y-100370515D01*
X131706563Y-100369140D01*
X131687054Y-100367219D01*
X131448959Y-100367219D01*
X131429450Y-100369140D01*
X131426129Y-100370515D01*
X131422546Y-100370770D01*
X131404237Y-100377776D01*
X131309000Y-100425395D01*
X131300603Y-100430680D01*
X131298163Y-100431691D01*
X131295417Y-100433944D01*
X131292409Y-100435838D01*
X131290676Y-100437835D01*
X131283010Y-100444128D01*
X131235391Y-100491746D01*
X131222955Y-100506900D01*
X131208023Y-100542948D01*
X131208023Y-100581966D01*
X131222955Y-100618014D01*
X131250545Y-100645604D01*
X131286593Y-100660536D01*
X131325611Y-100660536D01*
X131361659Y-100645604D01*
X131376813Y-100633168D01*
X131412956Y-100597023D01*
X131472566Y-100567219D01*
X131663447Y-100567219D01*
X131723056Y-100597024D01*
X131747725Y-100621692D01*
X131777530Y-100681302D01*
X131777530Y-100736706D01*
X131742508Y-100841770D01*
X131187772Y-101396508D01*
X131175336Y-101411662D01*
X131160404Y-101447710D01*
X131160404Y-101474845D01*
X131135134Y-101464378D01*
X131115625Y-101462457D01*
X130353721Y-101462457D01*
X130334212Y-101464378D01*
X130298164Y-101479310D01*
X130270574Y-101506900D01*
X130255642Y-101542948D01*
X130226219Y-101542948D01*
X130246391Y-101522776D01*
X130261323Y-101486728D01*
X130261323Y-101447710D01*
X130246391Y-101411662D01*
X130218801Y-101384072D01*
X130182753Y-101369140D01*
X130163244Y-101367219D01*
X129977530Y-101367219D01*
X129977530Y-100467219D01*
X129977523Y-100467148D01*
X129977530Y-100467114D01*
X129977509Y-100467012D01*
X129975609Y-100447710D01*
X129971819Y-100438561D01*
X129969878Y-100428854D01*
X129964426Y-100420713D01*
X129960677Y-100411662D01*
X129953677Y-100404662D01*
X129948167Y-100396434D01*
X129940012Y-100390997D01*
X129933087Y-100384072D01*
X129923943Y-100380284D01*
X129915702Y-100374790D01*
X129906088Y-100372888D01*
X129897039Y-100369140D01*
X129887138Y-100369140D01*
X129877426Y-100367219D01*
X129867821Y-100369140D01*
X129858021Y-100369140D01*
X129848872Y-100372929D01*
X129839165Y-100374871D01*
X129831024Y-100380322D01*
X129821973Y-100384072D01*
X129814973Y-100391071D01*
X129806745Y-100396582D01*
X129794456Y-100411588D01*
X129794383Y-100411662D01*
X129794369Y-100411694D01*
X129794325Y-100411749D01*
X129704581Y-100546365D01*
X129627817Y-100623128D01*
X129547095Y-100663490D01*
X129530504Y-100673933D01*
X129504940Y-100703410D01*
X129492601Y-100740426D01*
X129263244Y-100740426D01*
X129263244Y-100467219D01*
X129261323Y-100447710D01*
X129246391Y-100411662D01*
X129218801Y-100384072D01*
X129182753Y-100369140D01*
X129143735Y-100369140D01*
X129107687Y-100384072D01*
X129080097Y-100411662D01*
X129065165Y-100447710D01*
X129063244Y-100467219D01*
X129063244Y-101090662D01*
X128678640Y-100417605D01*
X128675721Y-100413494D01*
X128674963Y-100411662D01*
X128673096Y-100409795D01*
X128667293Y-100401620D01*
X128656778Y-100393477D01*
X128647373Y-100384072D01*
X128641482Y-100381632D01*
X128636444Y-100377730D01*
X128623615Y-100374231D01*
X128611325Y-100369140D01*
X128604950Y-100369140D01*
X128598801Y-100367463D01*
X128585608Y-100369140D01*
X128572307Y-100369140D01*
X128566418Y-100371579D01*
X128560094Y-100372383D01*
X128548544Y-100378983D01*
X128536259Y-100384072D01*
X128531751Y-100388579D01*
X128526217Y-100391742D01*
X128518074Y-100402256D01*
X128508669Y-100411662D01*
X128506229Y-100417552D01*
X128502327Y-100422591D01*
X128498828Y-100435419D01*
X128493737Y-100447710D01*
X128492754Y-100457687D01*
X128492060Y-100460234D01*
X128492310Y-100462201D01*
X128491816Y-100467219D01*
X128030558Y-100467219D01*
X128020017Y-100435596D01*
X128012026Y-100417696D01*
X128007341Y-100412294D01*
X128004148Y-100405908D01*
X127994679Y-100397695D01*
X127986461Y-100388220D01*
X127980069Y-100385023D01*
X127974672Y-100380343D01*
X127962778Y-100376378D01*
X127951562Y-100370770D01*
X127944434Y-100370263D01*
X127937656Y-100368004D01*
X127925151Y-100368893D01*
X127912642Y-100368004D01*
X127905860Y-100370264D01*
X127898736Y-100370771D01*
X127887527Y-100376374D01*
X127875626Y-100380342D01*
X127870225Y-100385025D01*
X127863837Y-100388220D01*
X127855621Y-100397691D01*
X127846150Y-100405907D01*
X127842955Y-100412296D01*
X127838272Y-100417696D01*
X127830281Y-100435597D01*
X127496948Y-101435596D01*
X127492601Y-101454712D01*
X127364790Y-101454712D01*
X127376812Y-101442690D01*
X127389249Y-101427537D01*
X127404180Y-101391488D01*
X127404179Y-101352470D01*
X127389248Y-101316422D01*
X127361657Y-101288832D01*
X127325609Y-101273901D01*
X127286591Y-101273902D01*
X127250543Y-101288833D01*
X127235389Y-101301270D01*
X127204462Y-101332197D01*
X127099398Y-101367219D01*
X127036613Y-101367219D01*
X126931548Y-101332197D01*
X126864478Y-101265127D01*
X126829024Y-101194218D01*
X126787054Y-101026337D01*
X126787054Y-100908100D01*
X126829024Y-100740218D01*
X126864477Y-100669312D01*
X126931549Y-100602240D01*
X127036613Y-100567219D01*
X127099398Y-100567219D01*
X127204463Y-100602240D01*
X127235390Y-100633167D01*
X127250543Y-100645604D01*
X127286592Y-100660535D01*
X127325610Y-100660535D01*
X127361658Y-100645604D01*
X127389248Y-100618014D01*
X127404179Y-100581966D01*
X127404179Y-100542948D01*
X127389248Y-100506899D01*
X127376811Y-100491746D01*
X127329193Y-100444127D01*
X127314039Y-100431691D01*
X127310720Y-100430316D01*
X127308005Y-100427961D01*
X127290104Y-100419970D01*
X127147248Y-100372351D01*
X127137576Y-100370151D01*
X127135134Y-100369140D01*
X127131595Y-100368791D01*
X127128132Y-100368004D01*
X127125498Y-100368191D01*
X127115625Y-100367219D01*
X127020387Y-100367219D01*
X127010513Y-100368191D01*
X127007879Y-100368004D01*
X127004415Y-100368791D01*
X127000878Y-100369140D01*
X126998436Y-100370151D01*
X126988764Y-100372351D01*
X126845907Y-100419970D01*
X126828007Y-100427961D01*
X126825291Y-100430316D01*
X126821973Y-100431691D01*
X126806819Y-100444127D01*
X126711581Y-100539365D01*
X126705286Y-100547035D01*
X126703292Y-100548765D01*
X126701398Y-100551772D01*
X126699145Y-100554519D01*
X126698134Y-100556958D01*
X126692849Y-100565355D01*
X126645230Y-100660593D01*
X126644684Y-100662019D01*
X126644254Y-100662600D01*
X126641332Y-100670776D01*
X126638224Y-100678901D01*
X126638172Y-100679623D01*
X126637659Y-100681061D01*
X126590040Y-100871536D01*
X126589539Y-100874917D01*
X126588975Y-100876281D01*
X126588251Y-100883631D01*
X126587172Y-100890929D01*
X126587389Y-100892387D01*
X126587054Y-100895790D01*
X126475943Y-100895790D01*
X126475943Y-100256108D01*
X132088641Y-100256108D01*
X132088641Y-101773568D01*
G37*
G36*
X75319502Y-101081504D02*
G01*
X75120797Y-101081504D01*
X75220149Y-100783446D01*
X75319502Y-101081504D01*
G37*
G36*
X79938550Y-101081504D02*
G01*
X79739845Y-101081504D01*
X79839197Y-100783446D01*
X79938550Y-101081504D01*
G37*
G36*
X84526498Y-101773568D02*
G01*
X73770943Y-101773568D01*
X73770943Y-100895790D01*
X73882054Y-100895790D01*
X73882054Y-101038647D01*
X73882389Y-101042049D01*
X73882172Y-101043508D01*
X73883251Y-101050805D01*
X73883975Y-101058156D01*
X73884539Y-101059519D01*
X73885040Y-101062901D01*
X73932659Y-101253376D01*
X73933172Y-101254813D01*
X73933224Y-101255536D01*
X73936332Y-101263660D01*
X73939254Y-101271837D01*
X73939684Y-101272417D01*
X73940230Y-101273844D01*
X73987849Y-101369082D01*
X73993131Y-101377474D01*
X73994144Y-101379918D01*
X73996400Y-101382667D01*
X73998292Y-101385672D01*
X74000286Y-101387401D01*
X74006581Y-101395071D01*
X74101819Y-101490311D01*
X74116972Y-101502747D01*
X74120291Y-101504122D01*
X74123007Y-101506477D01*
X74140907Y-101514468D01*
X74283764Y-101562087D01*
X74293436Y-101564286D01*
X74295878Y-101565298D01*
X74299415Y-101565646D01*
X74302879Y-101566434D01*
X74305513Y-101566246D01*
X74315387Y-101567219D01*
X74410625Y-101567219D01*
X74420498Y-101566246D01*
X74423132Y-101566434D01*
X74426595Y-101565646D01*
X74430134Y-101565298D01*
X74432576Y-101564286D01*
X74442248Y-101562087D01*
X74585104Y-101514468D01*
X74603005Y-101506477D01*
X74605720Y-101504122D01*
X74609040Y-101502747D01*
X74624193Y-101490310D01*
X74659790Y-101454712D01*
X74787601Y-101454712D01*
X74790367Y-101493632D01*
X74807817Y-101528531D01*
X74837293Y-101554096D01*
X74874309Y-101566434D01*
X74913229Y-101563668D01*
X74948128Y-101546218D01*
X74973693Y-101516742D01*
X74981684Y-101498842D01*
X75054130Y-101281504D01*
X75386168Y-101281504D01*
X75458614Y-101498841D01*
X75466605Y-101516742D01*
X75492170Y-101546218D01*
X75527069Y-101563667D01*
X75565989Y-101566434D01*
X75603005Y-101554095D01*
X75632481Y-101528530D01*
X75649931Y-101493631D01*
X75652697Y-101454711D01*
X75648350Y-101435596D01*
X75325558Y-100467219D01*
X75786816Y-100467219D01*
X75786816Y-101467219D01*
X75788737Y-101486728D01*
X75803669Y-101522776D01*
X75831259Y-101550366D01*
X75867307Y-101565298D01*
X75906325Y-101565298D01*
X75942373Y-101550366D01*
X75969963Y-101522776D01*
X75984895Y-101486728D01*
X75986816Y-101467219D01*
X75986816Y-100843775D01*
X76371420Y-101516833D01*
X76374338Y-101520943D01*
X76375097Y-101522776D01*
X76376963Y-101524642D01*
X76382767Y-101532818D01*
X76393283Y-101540962D01*
X76402687Y-101550366D01*
X76408574Y-101552804D01*
X76413616Y-101556709D01*
X76426448Y-101560208D01*
X76438735Y-101565298D01*
X76445111Y-101565298D01*
X76451260Y-101566975D01*
X76464453Y-101565298D01*
X76477753Y-101565298D01*
X76483641Y-101562858D01*
X76489966Y-101562055D01*
X76501515Y-101555454D01*
X76513801Y-101550366D01*
X76518308Y-101545858D01*
X76523843Y-101542696D01*
X76531987Y-101532179D01*
X76541391Y-101522776D01*
X76543829Y-101516888D01*
X76547734Y-101511847D01*
X76551233Y-101499014D01*
X76556323Y-101486728D01*
X76557305Y-101476750D01*
X76558000Y-101474204D01*
X76557749Y-101472236D01*
X76558244Y-101467219D01*
X76558244Y-100740426D01*
X76787601Y-100740426D01*
X76790367Y-100779346D01*
X76807816Y-100814245D01*
X76837293Y-100839809D01*
X76874309Y-100852148D01*
X76913229Y-100849382D01*
X76931537Y-100842376D01*
X77026775Y-100794757D01*
X77035171Y-100789471D01*
X77037611Y-100788461D01*
X77040357Y-100786207D01*
X77043365Y-100784314D01*
X77045094Y-100782319D01*
X77052765Y-100776025D01*
X77072530Y-100756260D01*
X77072530Y-101367219D01*
X76886816Y-101367219D01*
X76867307Y-101369140D01*
X76831259Y-101384072D01*
X76803669Y-101411662D01*
X76788737Y-101447710D01*
X76788737Y-101486728D01*
X76803669Y-101522776D01*
X76831259Y-101550366D01*
X76867307Y-101565298D01*
X76886816Y-101567219D01*
X77458244Y-101567219D01*
X77477753Y-101565298D01*
X77513801Y-101550366D01*
X77521219Y-101542948D01*
X77550642Y-101542948D01*
X77550642Y-101581966D01*
X77565574Y-101618014D01*
X77593164Y-101645604D01*
X77629212Y-101660536D01*
X77648721Y-101662457D01*
X78410625Y-101662457D01*
X78430134Y-101660536D01*
X78466182Y-101645604D01*
X78493772Y-101618014D01*
X78508704Y-101581966D01*
X78508704Y-101542948D01*
X78493772Y-101506900D01*
X78466182Y-101479310D01*
X78430134Y-101464378D01*
X78410625Y-101462457D01*
X77648721Y-101462457D01*
X77629212Y-101464378D01*
X77593164Y-101479310D01*
X77565574Y-101506900D01*
X77550642Y-101542948D01*
X77521219Y-101542948D01*
X77541391Y-101522776D01*
X77556323Y-101486728D01*
X77556323Y-101447710D01*
X77541391Y-101411662D01*
X77513801Y-101384072D01*
X77477753Y-101369140D01*
X77458244Y-101367219D01*
X77272530Y-101367219D01*
X77272530Y-100895790D01*
X78501102Y-100895790D01*
X78501102Y-101038647D01*
X78501437Y-101042049D01*
X78501220Y-101043508D01*
X78502299Y-101050805D01*
X78503023Y-101058156D01*
X78503587Y-101059519D01*
X78504088Y-101062901D01*
X78551707Y-101253376D01*
X78552220Y-101254813D01*
X78552272Y-101255536D01*
X78555380Y-101263660D01*
X78558302Y-101271837D01*
X78558732Y-101272417D01*
X78559278Y-101273844D01*
X78606897Y-101369082D01*
X78612179Y-101377474D01*
X78613192Y-101379918D01*
X78615448Y-101382667D01*
X78617340Y-101385672D01*
X78619334Y-101387401D01*
X78625629Y-101395071D01*
X78720867Y-101490311D01*
X78736020Y-101502747D01*
X78739339Y-101504122D01*
X78742055Y-101506477D01*
X78759955Y-101514468D01*
X78902812Y-101562087D01*
X78912484Y-101564286D01*
X78914926Y-101565298D01*
X78918463Y-101565646D01*
X78921927Y-101566434D01*
X78924561Y-101566246D01*
X78934435Y-101567219D01*
X79029673Y-101567219D01*
X79039546Y-101566246D01*
X79042180Y-101566434D01*
X79045643Y-101565646D01*
X79049182Y-101565298D01*
X79051624Y-101564286D01*
X79061296Y-101562087D01*
X79204152Y-101514468D01*
X79222053Y-101506477D01*
X79224768Y-101504122D01*
X79228088Y-101502747D01*
X79243241Y-101490310D01*
X79278838Y-101454712D01*
X79406649Y-101454712D01*
X79409415Y-101493632D01*
X79426865Y-101528531D01*
X79456341Y-101554096D01*
X79493357Y-101566434D01*
X79532277Y-101563668D01*
X79567176Y-101546218D01*
X79592741Y-101516742D01*
X79600732Y-101498842D01*
X79673178Y-101281504D01*
X80005216Y-101281504D01*
X80077662Y-101498841D01*
X80085653Y-101516742D01*
X80111218Y-101546218D01*
X80146117Y-101563667D01*
X80185037Y-101566434D01*
X80222053Y-101554095D01*
X80251529Y-101528530D01*
X80268979Y-101493631D01*
X80271745Y-101454711D01*
X80267398Y-101435596D01*
X79944606Y-100467219D01*
X80405864Y-100467219D01*
X80405864Y-101467219D01*
X80407785Y-101486728D01*
X80422717Y-101522776D01*
X80450307Y-101550366D01*
X80486355Y-101565298D01*
X80525373Y-101565298D01*
X80561421Y-101550366D01*
X80589011Y-101522776D01*
X80603943Y-101486728D01*
X80605864Y-101467219D01*
X80605864Y-100843775D01*
X80990468Y-101516833D01*
X80993386Y-101520943D01*
X80994145Y-101522776D01*
X80996011Y-101524642D01*
X81001815Y-101532818D01*
X81012331Y-101540962D01*
X81021735Y-101550366D01*
X81027622Y-101552804D01*
X81032664Y-101556709D01*
X81045496Y-101560208D01*
X81057783Y-101565298D01*
X81064159Y-101565298D01*
X81070308Y-101566975D01*
X81083501Y-101565298D01*
X81096801Y-101565298D01*
X81102689Y-101562858D01*
X81109014Y-101562055D01*
X81120563Y-101555454D01*
X81132849Y-101550366D01*
X81137356Y-101545858D01*
X81142891Y-101542696D01*
X81151035Y-101532179D01*
X81160439Y-101522776D01*
X81162877Y-101516888D01*
X81166782Y-101511847D01*
X81170281Y-101499014D01*
X81175371Y-101486728D01*
X81176353Y-101476750D01*
X81177048Y-101474204D01*
X81176797Y-101472236D01*
X81177292Y-101467219D01*
X81177292Y-100740426D01*
X81406649Y-100740426D01*
X81409415Y-100779346D01*
X81426864Y-100814245D01*
X81456341Y-100839809D01*
X81493357Y-100852148D01*
X81532277Y-100849382D01*
X81550585Y-100842376D01*
X81645823Y-100794757D01*
X81654219Y-100789471D01*
X81656659Y-100788461D01*
X81659405Y-100786207D01*
X81662413Y-100784314D01*
X81664142Y-100782319D01*
X81671813Y-100776025D01*
X81691578Y-100756260D01*
X81691578Y-101367219D01*
X81505864Y-101367219D01*
X81486355Y-101369140D01*
X81450307Y-101384072D01*
X81422717Y-101411662D01*
X81407785Y-101447710D01*
X81407785Y-101486728D01*
X81422717Y-101522776D01*
X81450307Y-101550366D01*
X81486355Y-101565298D01*
X81505864Y-101567219D01*
X82077292Y-101567219D01*
X82096801Y-101565298D01*
X82132849Y-101550366D01*
X82160439Y-101522776D01*
X82175371Y-101486728D01*
X82175371Y-101447710D01*
X82160439Y-101411662D01*
X82132849Y-101384072D01*
X82096801Y-101369140D01*
X82077292Y-101367219D01*
X81891578Y-101367219D01*
X81891578Y-100467219D01*
X83167769Y-100467219D01*
X83167769Y-101467219D01*
X83169690Y-101486728D01*
X83184622Y-101522776D01*
X83212212Y-101550366D01*
X83248260Y-101565298D01*
X83287278Y-101565298D01*
X83323326Y-101550366D01*
X83350916Y-101522776D01*
X83365848Y-101486728D01*
X83367769Y-101467219D01*
X83367769Y-100467219D01*
X83643959Y-100467219D01*
X83643959Y-101467219D01*
X83645880Y-101486728D01*
X83660812Y-101522776D01*
X83688402Y-101550366D01*
X83724450Y-101565298D01*
X83763468Y-101565298D01*
X83799516Y-101550366D01*
X83827106Y-101522776D01*
X83842038Y-101486728D01*
X83843959Y-101467219D01*
X83843959Y-100843775D01*
X84228563Y-101516833D01*
X84231481Y-101520943D01*
X84232240Y-101522776D01*
X84234106Y-101524642D01*
X84239910Y-101532818D01*
X84250426Y-101540962D01*
X84259830Y-101550366D01*
X84265717Y-101552804D01*
X84270759Y-101556709D01*
X84283591Y-101560208D01*
X84295878Y-101565298D01*
X84302254Y-101565298D01*
X84308403Y-101566975D01*
X84321596Y-101565298D01*
X84334896Y-101565298D01*
X84340784Y-101562858D01*
X84347109Y-101562055D01*
X84358658Y-101555454D01*
X84370944Y-101550366D01*
X84375451Y-101545858D01*
X84380986Y-101542696D01*
X84389130Y-101532179D01*
X84398534Y-101522776D01*
X84400972Y-101516888D01*
X84404877Y-101511847D01*
X84408376Y-101499014D01*
X84413466Y-101486728D01*
X84414448Y-101476750D01*
X84415143Y-101474204D01*
X84414892Y-101472236D01*
X84415387Y-101467219D01*
X84415387Y-100467219D01*
X84413466Y-100447710D01*
X84398534Y-100411662D01*
X84370944Y-100384072D01*
X84334896Y-100369140D01*
X84295878Y-100369140D01*
X84259830Y-100384072D01*
X84232240Y-100411662D01*
X84217308Y-100447710D01*
X84215387Y-100467219D01*
X84215387Y-101090662D01*
X83830783Y-100417605D01*
X83827864Y-100413494D01*
X83827106Y-100411662D01*
X83825239Y-100409795D01*
X83819436Y-100401620D01*
X83808921Y-100393477D01*
X83799516Y-100384072D01*
X83793625Y-100381632D01*
X83788587Y-100377730D01*
X83775758Y-100374231D01*
X83763468Y-100369140D01*
X83757093Y-100369140D01*
X83750944Y-100367463D01*
X83737751Y-100369140D01*
X83724450Y-100369140D01*
X83718561Y-100371579D01*
X83712237Y-100372383D01*
X83700687Y-100378983D01*
X83688402Y-100384072D01*
X83683894Y-100388579D01*
X83678360Y-100391742D01*
X83670217Y-100402256D01*
X83660812Y-100411662D01*
X83658372Y-100417552D01*
X83654470Y-100422591D01*
X83650971Y-100435419D01*
X83645880Y-100447710D01*
X83644897Y-100457687D01*
X83644203Y-100460234D01*
X83644453Y-100462201D01*
X83643959Y-100467219D01*
X83367769Y-100467219D01*
X83365848Y-100447710D01*
X83350916Y-100411662D01*
X83323326Y-100384072D01*
X83287278Y-100369140D01*
X83248260Y-100369140D01*
X83212212Y-100384072D01*
X83184622Y-100411662D01*
X83169690Y-100447710D01*
X83167769Y-100467219D01*
X81891578Y-100467219D01*
X81891571Y-100467148D01*
X81891578Y-100467114D01*
X81891557Y-100467012D01*
X81889657Y-100447710D01*
X81885867Y-100438561D01*
X81883926Y-100428854D01*
X81878474Y-100420713D01*
X81874725Y-100411662D01*
X81867725Y-100404662D01*
X81862215Y-100396434D01*
X81854060Y-100390997D01*
X81847135Y-100384072D01*
X81837991Y-100380284D01*
X81829750Y-100374790D01*
X81820136Y-100372888D01*
X81811087Y-100369140D01*
X81801186Y-100369140D01*
X81791474Y-100367219D01*
X81781869Y-100369140D01*
X81772069Y-100369140D01*
X81762920Y-100372929D01*
X81753213Y-100374871D01*
X81745072Y-100380322D01*
X81736021Y-100384072D01*
X81729021Y-100391071D01*
X81720793Y-100396582D01*
X81708504Y-100411588D01*
X81708431Y-100411662D01*
X81708417Y-100411694D01*
X81708373Y-100411749D01*
X81618629Y-100546365D01*
X81541865Y-100623128D01*
X81461143Y-100663490D01*
X81444552Y-100673933D01*
X81418988Y-100703410D01*
X81406649Y-100740426D01*
X81177292Y-100740426D01*
X81177292Y-100467219D01*
X81175371Y-100447710D01*
X81160439Y-100411662D01*
X81132849Y-100384072D01*
X81096801Y-100369140D01*
X81057783Y-100369140D01*
X81021735Y-100384072D01*
X80994145Y-100411662D01*
X80979213Y-100447710D01*
X80977292Y-100467219D01*
X80977292Y-101090662D01*
X80592688Y-100417605D01*
X80589769Y-100413494D01*
X80589011Y-100411662D01*
X80587144Y-100409795D01*
X80581341Y-100401620D01*
X80570826Y-100393477D01*
X80561421Y-100384072D01*
X80555530Y-100381632D01*
X80550492Y-100377730D01*
X80537663Y-100374231D01*
X80525373Y-100369140D01*
X80518998Y-100369140D01*
X80512849Y-100367463D01*
X80499656Y-100369140D01*
X80486355Y-100369140D01*
X80480466Y-100371579D01*
X80474142Y-100372383D01*
X80462592Y-100378983D01*
X80450307Y-100384072D01*
X80445799Y-100388579D01*
X80440265Y-100391742D01*
X80432122Y-100402256D01*
X80422717Y-100411662D01*
X80420277Y-100417552D01*
X80416375Y-100422591D01*
X80412876Y-100435419D01*
X80407785Y-100447710D01*
X80406802Y-100457687D01*
X80406108Y-100460234D01*
X80406358Y-100462201D01*
X80405864Y-100467219D01*
X79944606Y-100467219D01*
X79934065Y-100435596D01*
X79926074Y-100417696D01*
X79921389Y-100412294D01*
X79918196Y-100405908D01*
X79908727Y-100397695D01*
X79900509Y-100388220D01*
X79894117Y-100385023D01*
X79888720Y-100380343D01*
X79876826Y-100376378D01*
X79865610Y-100370770D01*
X79858482Y-100370263D01*
X79851704Y-100368004D01*
X79839199Y-100368893D01*
X79826690Y-100368004D01*
X79819908Y-100370264D01*
X79812784Y-100370771D01*
X79801575Y-100376374D01*
X79789674Y-100380342D01*
X79784273Y-100385025D01*
X79777885Y-100388220D01*
X79769669Y-100397691D01*
X79760198Y-100405907D01*
X79757003Y-100412296D01*
X79752320Y-100417696D01*
X79744329Y-100435597D01*
X79410996Y-101435596D01*
X79406649Y-101454712D01*
X79278838Y-101454712D01*
X79290860Y-101442690D01*
X79303297Y-101427537D01*
X79318228Y-101391488D01*
X79318227Y-101352470D01*
X79303296Y-101316422D01*
X79275705Y-101288832D01*
X79239657Y-101273901D01*
X79200639Y-101273902D01*
X79164591Y-101288833D01*
X79149437Y-101301270D01*
X79118510Y-101332197D01*
X79013446Y-101367219D01*
X78950661Y-101367219D01*
X78845596Y-101332197D01*
X78778526Y-101265127D01*
X78743072Y-101194218D01*
X78701102Y-101026337D01*
X78701102Y-100908100D01*
X78743072Y-100740218D01*
X78778525Y-100669312D01*
X78845597Y-100602240D01*
X78950661Y-100567219D01*
X79013446Y-100567219D01*
X79118511Y-100602240D01*
X79149438Y-100633167D01*
X79164591Y-100645604D01*
X79200640Y-100660535D01*
X79239658Y-100660535D01*
X79275706Y-100645604D01*
X79303296Y-100618014D01*
X79318227Y-100581966D01*
X79318227Y-100542948D01*
X79303296Y-100506899D01*
X79290859Y-100491746D01*
X79243241Y-100444127D01*
X79228087Y-100431691D01*
X79224768Y-100430316D01*
X79222053Y-100427961D01*
X79204152Y-100419970D01*
X79061296Y-100372351D01*
X79051624Y-100370151D01*
X79049182Y-100369140D01*
X79045643Y-100368791D01*
X79042180Y-100368004D01*
X79039546Y-100368191D01*
X79029673Y-100367219D01*
X78934435Y-100367219D01*
X78924561Y-100368191D01*
X78921927Y-100368004D01*
X78918463Y-100368791D01*
X78914926Y-100369140D01*
X78912484Y-100370151D01*
X78902812Y-100372351D01*
X78759955Y-100419970D01*
X78742055Y-100427961D01*
X78739339Y-100430316D01*
X78736021Y-100431691D01*
X78720867Y-100444127D01*
X78625629Y-100539365D01*
X78619334Y-100547035D01*
X78617340Y-100548765D01*
X78615446Y-100551772D01*
X78613193Y-100554519D01*
X78612182Y-100556958D01*
X78606897Y-100565355D01*
X78559278Y-100660593D01*
X78558732Y-100662019D01*
X78558302Y-100662600D01*
X78555380Y-100670776D01*
X78552272Y-100678901D01*
X78552220Y-100679623D01*
X78551707Y-100681061D01*
X78504088Y-100871536D01*
X78503587Y-100874917D01*
X78503023Y-100876281D01*
X78502299Y-100883631D01*
X78501220Y-100890929D01*
X78501437Y-100892387D01*
X78501102Y-100895790D01*
X77272530Y-100895790D01*
X77272530Y-100467219D01*
X77272523Y-100467148D01*
X77272530Y-100467114D01*
X77272509Y-100467012D01*
X77270609Y-100447710D01*
X77266819Y-100438561D01*
X77264878Y-100428854D01*
X77259426Y-100420713D01*
X77255677Y-100411662D01*
X77248677Y-100404662D01*
X77243167Y-100396434D01*
X77235012Y-100390997D01*
X77228087Y-100384072D01*
X77218943Y-100380284D01*
X77210702Y-100374790D01*
X77201088Y-100372888D01*
X77192039Y-100369140D01*
X77182138Y-100369140D01*
X77172426Y-100367219D01*
X77162821Y-100369140D01*
X77153021Y-100369140D01*
X77143872Y-100372929D01*
X77134165Y-100374871D01*
X77126024Y-100380322D01*
X77116973Y-100384072D01*
X77109973Y-100391071D01*
X77101745Y-100396582D01*
X77089456Y-100411588D01*
X77089383Y-100411662D01*
X77089369Y-100411694D01*
X77089325Y-100411749D01*
X76999581Y-100546365D01*
X76922817Y-100623128D01*
X76842095Y-100663490D01*
X76825504Y-100673933D01*
X76799940Y-100703410D01*
X76787601Y-100740426D01*
X76558244Y-100740426D01*
X76558244Y-100467219D01*
X76556323Y-100447710D01*
X76541391Y-100411662D01*
X76513801Y-100384072D01*
X76477753Y-100369140D01*
X76438735Y-100369140D01*
X76402687Y-100384072D01*
X76375097Y-100411662D01*
X76360165Y-100447710D01*
X76358244Y-100467219D01*
X76358244Y-101090662D01*
X75973640Y-100417605D01*
X75970721Y-100413494D01*
X75969963Y-100411662D01*
X75968096Y-100409795D01*
X75962293Y-100401620D01*
X75951778Y-100393477D01*
X75942373Y-100384072D01*
X75936482Y-100381632D01*
X75931444Y-100377730D01*
X75918615Y-100374231D01*
X75906325Y-100369140D01*
X75899950Y-100369140D01*
X75893801Y-100367463D01*
X75880608Y-100369140D01*
X75867307Y-100369140D01*
X75861418Y-100371579D01*
X75855094Y-100372383D01*
X75843544Y-100378983D01*
X75831259Y-100384072D01*
X75826751Y-100388579D01*
X75821217Y-100391742D01*
X75813074Y-100402256D01*
X75803669Y-100411662D01*
X75801229Y-100417552D01*
X75797327Y-100422591D01*
X75793828Y-100435419D01*
X75788737Y-100447710D01*
X75787754Y-100457687D01*
X75787060Y-100460234D01*
X75787310Y-100462201D01*
X75786816Y-100467219D01*
X75325558Y-100467219D01*
X75315017Y-100435596D01*
X75307026Y-100417696D01*
X75302341Y-100412294D01*
X75299148Y-100405908D01*
X75289679Y-100397695D01*
X75281461Y-100388220D01*
X75275069Y-100385023D01*
X75269672Y-100380343D01*
X75257778Y-100376378D01*
X75246562Y-100370770D01*
X75239434Y-100370263D01*
X75232656Y-100368004D01*
X75220151Y-100368893D01*
X75207642Y-100368004D01*
X75200860Y-100370264D01*
X75193736Y-100370771D01*
X75182527Y-100376374D01*
X75170626Y-100380342D01*
X75165225Y-100385025D01*
X75158837Y-100388220D01*
X75150621Y-100397691D01*
X75141150Y-100405907D01*
X75137955Y-100412296D01*
X75133272Y-100417696D01*
X75125281Y-100435597D01*
X74791948Y-101435596D01*
X74787601Y-101454712D01*
X74659790Y-101454712D01*
X74671812Y-101442690D01*
X74684249Y-101427537D01*
X74699180Y-101391488D01*
X74699179Y-101352470D01*
X74684248Y-101316422D01*
X74656657Y-101288832D01*
X74620609Y-101273901D01*
X74581591Y-101273902D01*
X74545543Y-101288833D01*
X74530389Y-101301270D01*
X74499462Y-101332197D01*
X74394398Y-101367219D01*
X74331613Y-101367219D01*
X74226548Y-101332197D01*
X74159478Y-101265127D01*
X74124024Y-101194218D01*
X74082054Y-101026337D01*
X74082054Y-100908100D01*
X74124024Y-100740218D01*
X74159477Y-100669312D01*
X74226549Y-100602240D01*
X74331613Y-100567219D01*
X74394398Y-100567219D01*
X74499463Y-100602240D01*
X74530390Y-100633167D01*
X74545543Y-100645604D01*
X74581592Y-100660535D01*
X74620610Y-100660535D01*
X74656658Y-100645604D01*
X74684248Y-100618014D01*
X74699179Y-100581966D01*
X74699179Y-100542948D01*
X74684248Y-100506899D01*
X74671811Y-100491746D01*
X74624193Y-100444127D01*
X74609039Y-100431691D01*
X74605720Y-100430316D01*
X74603005Y-100427961D01*
X74585104Y-100419970D01*
X74442248Y-100372351D01*
X74432576Y-100370151D01*
X74430134Y-100369140D01*
X74426595Y-100368791D01*
X74423132Y-100368004D01*
X74420498Y-100368191D01*
X74410625Y-100367219D01*
X74315387Y-100367219D01*
X74305513Y-100368191D01*
X74302879Y-100368004D01*
X74299415Y-100368791D01*
X74295878Y-100369140D01*
X74293436Y-100370151D01*
X74283764Y-100372351D01*
X74140907Y-100419970D01*
X74123007Y-100427961D01*
X74120291Y-100430316D01*
X74116973Y-100431691D01*
X74101819Y-100444127D01*
X74006581Y-100539365D01*
X74000286Y-100547035D01*
X73998292Y-100548765D01*
X73996398Y-100551772D01*
X73994145Y-100554519D01*
X73993134Y-100556958D01*
X73987849Y-100565355D01*
X73940230Y-100660593D01*
X73939684Y-100662019D01*
X73939254Y-100662600D01*
X73936332Y-100670776D01*
X73933224Y-100678901D01*
X73933172Y-100679623D01*
X73932659Y-100681061D01*
X73885040Y-100871536D01*
X73884539Y-100874917D01*
X73883975Y-100876281D01*
X73883251Y-100883631D01*
X73882172Y-100890929D01*
X73882389Y-100892387D01*
X73882054Y-100895790D01*
X73770943Y-100895790D01*
X73770943Y-100256108D01*
X84526498Y-100256108D01*
X84526498Y-101773568D01*
G37*
G36*
X178824502Y-101081504D02*
G01*
X178625797Y-101081504D01*
X178725149Y-100783446D01*
X178824502Y-101081504D01*
G37*
G36*
X182934339Y-101773568D02*
G01*
X177275943Y-101773568D01*
X177275943Y-100895790D01*
X177387054Y-100895790D01*
X177387054Y-101038647D01*
X177387389Y-101042049D01*
X177387172Y-101043508D01*
X177388251Y-101050805D01*
X177388975Y-101058156D01*
X177389539Y-101059519D01*
X177390040Y-101062901D01*
X177437659Y-101253376D01*
X177438172Y-101254813D01*
X177438224Y-101255536D01*
X177441332Y-101263660D01*
X177444254Y-101271837D01*
X177444684Y-101272417D01*
X177445230Y-101273844D01*
X177492849Y-101369082D01*
X177498131Y-101377474D01*
X177499144Y-101379918D01*
X177501400Y-101382667D01*
X177503292Y-101385672D01*
X177505286Y-101387401D01*
X177511581Y-101395071D01*
X177606819Y-101490311D01*
X177621972Y-101502747D01*
X177625291Y-101504122D01*
X177628007Y-101506477D01*
X177645907Y-101514468D01*
X177788764Y-101562087D01*
X177798436Y-101564286D01*
X177800878Y-101565298D01*
X177804415Y-101565646D01*
X177807879Y-101566434D01*
X177810513Y-101566246D01*
X177820387Y-101567219D01*
X177915625Y-101567219D01*
X177925498Y-101566246D01*
X177928132Y-101566434D01*
X177931595Y-101565646D01*
X177935134Y-101565298D01*
X177937576Y-101564286D01*
X177947248Y-101562087D01*
X178090104Y-101514468D01*
X178108005Y-101506477D01*
X178110720Y-101504122D01*
X178114040Y-101502747D01*
X178129193Y-101490310D01*
X178164790Y-101454712D01*
X178292601Y-101454712D01*
X178295367Y-101493632D01*
X178312817Y-101528531D01*
X178342293Y-101554096D01*
X178379309Y-101566434D01*
X178418229Y-101563668D01*
X178453128Y-101546218D01*
X178478693Y-101516742D01*
X178486684Y-101498842D01*
X178559130Y-101281504D01*
X178891168Y-101281504D01*
X178963614Y-101498841D01*
X178971605Y-101516742D01*
X178997170Y-101546218D01*
X179032069Y-101563667D01*
X179070989Y-101566434D01*
X179108005Y-101554095D01*
X179137481Y-101528530D01*
X179154931Y-101493631D01*
X179157697Y-101454711D01*
X179153350Y-101435596D01*
X178830558Y-100467219D01*
X179291816Y-100467219D01*
X179291816Y-101467219D01*
X179293737Y-101486728D01*
X179308669Y-101522776D01*
X179336259Y-101550366D01*
X179372307Y-101565298D01*
X179411325Y-101565298D01*
X179447373Y-101550366D01*
X179474963Y-101522776D01*
X179489895Y-101486728D01*
X179491816Y-101467219D01*
X179491816Y-100843775D01*
X179876420Y-101516833D01*
X179879338Y-101520943D01*
X179880097Y-101522776D01*
X179881963Y-101524642D01*
X179887767Y-101532818D01*
X179898283Y-101540962D01*
X179907687Y-101550366D01*
X179913574Y-101552804D01*
X179918616Y-101556709D01*
X179931448Y-101560208D01*
X179943735Y-101565298D01*
X179950111Y-101565298D01*
X179956260Y-101566975D01*
X179969453Y-101565298D01*
X179982753Y-101565298D01*
X179988641Y-101562858D01*
X179994966Y-101562055D01*
X180006515Y-101555454D01*
X180018801Y-101550366D01*
X180023308Y-101545858D01*
X180028843Y-101542696D01*
X180036987Y-101532179D01*
X180046391Y-101522776D01*
X180048829Y-101516888D01*
X180052734Y-101511847D01*
X180056233Y-101499014D01*
X180061323Y-101486728D01*
X180062305Y-101476750D01*
X180063000Y-101474204D01*
X180062749Y-101472236D01*
X180063244Y-101467219D01*
X180063244Y-100740426D01*
X180292601Y-100740426D01*
X180295367Y-100779346D01*
X180312816Y-100814245D01*
X180342293Y-100839809D01*
X180379309Y-100852148D01*
X180418229Y-100849382D01*
X180436537Y-100842376D01*
X180531775Y-100794757D01*
X180540171Y-100789471D01*
X180542611Y-100788461D01*
X180545357Y-100786207D01*
X180548365Y-100784314D01*
X180550094Y-100782319D01*
X180557765Y-100776025D01*
X180577530Y-100756260D01*
X180577530Y-101367219D01*
X180391816Y-101367219D01*
X180372307Y-101369140D01*
X180336259Y-101384072D01*
X180308669Y-101411662D01*
X180293737Y-101447710D01*
X180293737Y-101486728D01*
X180308669Y-101522776D01*
X180336259Y-101550366D01*
X180372307Y-101565298D01*
X180391816Y-101567219D01*
X180963244Y-101567219D01*
X180982753Y-101565298D01*
X181018801Y-101550366D01*
X181026219Y-101542948D01*
X181055642Y-101542948D01*
X181055642Y-101581966D01*
X181070574Y-101618014D01*
X181098164Y-101645604D01*
X181134212Y-101660536D01*
X181153721Y-101662457D01*
X181915625Y-101662457D01*
X181935134Y-101660536D01*
X181971182Y-101645604D01*
X181998772Y-101618014D01*
X182013704Y-101581966D01*
X182013704Y-101542948D01*
X181998772Y-101506900D01*
X181971182Y-101479310D01*
X181935134Y-101464378D01*
X181915625Y-101462457D01*
X181153721Y-101462457D01*
X181134212Y-101464378D01*
X181098164Y-101479310D01*
X181070574Y-101506900D01*
X181055642Y-101542948D01*
X181026219Y-101542948D01*
X181046391Y-101522776D01*
X181061323Y-101486728D01*
X181061323Y-101447710D01*
X181046391Y-101411662D01*
X181018801Y-101384072D01*
X180982753Y-101369140D01*
X180963244Y-101367219D01*
X180777530Y-101367219D01*
X180777530Y-101121378D01*
X182006887Y-101121378D01*
X182008023Y-101137362D01*
X182008023Y-101153394D01*
X182009398Y-101156714D01*
X182009653Y-101160298D01*
X182016820Y-101174633D01*
X182022955Y-101189442D01*
X182025495Y-101191982D01*
X182027103Y-101195197D01*
X182039214Y-101205701D01*
X182050545Y-101217032D01*
X182053863Y-101218406D01*
X182056579Y-101220762D01*
X182071788Y-101225831D01*
X182086593Y-101231964D01*
X182091693Y-101232466D01*
X182093595Y-101233100D01*
X182096228Y-101232912D01*
X182106102Y-101233885D01*
X182482292Y-101233885D01*
X182482292Y-101467219D01*
X182484213Y-101486728D01*
X182499145Y-101522776D01*
X182526735Y-101550366D01*
X182562783Y-101565298D01*
X182601801Y-101565298D01*
X182637849Y-101550366D01*
X182665439Y-101522776D01*
X182680371Y-101486728D01*
X182682292Y-101467219D01*
X182682292Y-101233885D01*
X182725149Y-101233885D01*
X182744658Y-101231964D01*
X182780706Y-101217032D01*
X182808296Y-101189442D01*
X182823228Y-101153394D01*
X182823228Y-101114376D01*
X182808296Y-101078328D01*
X182780706Y-101050738D01*
X182744658Y-101035806D01*
X182725149Y-101033885D01*
X182682292Y-101033885D01*
X182682292Y-100800552D01*
X182680371Y-100781043D01*
X182665439Y-100744995D01*
X182637849Y-100717405D01*
X182601801Y-100702473D01*
X182562783Y-100702473D01*
X182526735Y-100717405D01*
X182499145Y-100744995D01*
X182484213Y-100781043D01*
X182482292Y-100800552D01*
X182482292Y-101033885D01*
X182244844Y-101033885D01*
X182439065Y-100451223D01*
X182443412Y-100432108D01*
X182440646Y-100393188D01*
X182423196Y-100358289D01*
X182393720Y-100332724D01*
X182356704Y-100320385D01*
X182317784Y-100323152D01*
X182282885Y-100340601D01*
X182257320Y-100370077D01*
X182249329Y-100387978D01*
X182011234Y-101102262D01*
X182009034Y-101111933D01*
X182008023Y-101114376D01*
X182008023Y-101116382D01*
X182006887Y-101121378D01*
X180777530Y-101121378D01*
X180777530Y-100467219D01*
X180777523Y-100467148D01*
X180777530Y-100467114D01*
X180777509Y-100467012D01*
X180775609Y-100447710D01*
X180771819Y-100438561D01*
X180769878Y-100428854D01*
X180764426Y-100420713D01*
X180760677Y-100411662D01*
X180753677Y-100404662D01*
X180748167Y-100396434D01*
X180740012Y-100390997D01*
X180733087Y-100384072D01*
X180723943Y-100380284D01*
X180715702Y-100374790D01*
X180706088Y-100372888D01*
X180697039Y-100369140D01*
X180687138Y-100369140D01*
X180677426Y-100367219D01*
X180667821Y-100369140D01*
X180658021Y-100369140D01*
X180648872Y-100372929D01*
X180639165Y-100374871D01*
X180631024Y-100380322D01*
X180621973Y-100384072D01*
X180614973Y-100391071D01*
X180606745Y-100396582D01*
X180594456Y-100411588D01*
X180594383Y-100411662D01*
X180594369Y-100411694D01*
X180594325Y-100411749D01*
X180504581Y-100546365D01*
X180427817Y-100623128D01*
X180347095Y-100663490D01*
X180330504Y-100673933D01*
X180304940Y-100703410D01*
X180292601Y-100740426D01*
X180063244Y-100740426D01*
X180063244Y-100467219D01*
X180061323Y-100447710D01*
X180046391Y-100411662D01*
X180018801Y-100384072D01*
X179982753Y-100369140D01*
X179943735Y-100369140D01*
X179907687Y-100384072D01*
X179880097Y-100411662D01*
X179865165Y-100447710D01*
X179863244Y-100467219D01*
X179863244Y-101090662D01*
X179478640Y-100417605D01*
X179475721Y-100413494D01*
X179474963Y-100411662D01*
X179473096Y-100409795D01*
X179467293Y-100401620D01*
X179456778Y-100393477D01*
X179447373Y-100384072D01*
X179441482Y-100381632D01*
X179436444Y-100377730D01*
X179423615Y-100374231D01*
X179411325Y-100369140D01*
X179404950Y-100369140D01*
X179398801Y-100367463D01*
X179385608Y-100369140D01*
X179372307Y-100369140D01*
X179366418Y-100371579D01*
X179360094Y-100372383D01*
X179348544Y-100378983D01*
X179336259Y-100384072D01*
X179331751Y-100388579D01*
X179326217Y-100391742D01*
X179318074Y-100402256D01*
X179308669Y-100411662D01*
X179306229Y-100417552D01*
X179302327Y-100422591D01*
X179298828Y-100435419D01*
X179293737Y-100447710D01*
X179292754Y-100457687D01*
X179292060Y-100460234D01*
X179292310Y-100462201D01*
X179291816Y-100467219D01*
X178830558Y-100467219D01*
X178820017Y-100435596D01*
X178812026Y-100417696D01*
X178807341Y-100412294D01*
X178804148Y-100405908D01*
X178794679Y-100397695D01*
X178786461Y-100388220D01*
X178780069Y-100385023D01*
X178774672Y-100380343D01*
X178762778Y-100376378D01*
X178751562Y-100370770D01*
X178744434Y-100370263D01*
X178737656Y-100368004D01*
X178725151Y-100368893D01*
X178712642Y-100368004D01*
X178705860Y-100370264D01*
X178698736Y-100370771D01*
X178687527Y-100376374D01*
X178675626Y-100380342D01*
X178670225Y-100385025D01*
X178663837Y-100388220D01*
X178655621Y-100397691D01*
X178646150Y-100405907D01*
X178642955Y-100412296D01*
X178638272Y-100417696D01*
X178630281Y-100435597D01*
X178296948Y-101435596D01*
X178292601Y-101454712D01*
X178164790Y-101454712D01*
X178176812Y-101442690D01*
X178189249Y-101427537D01*
X178204180Y-101391488D01*
X178204179Y-101352470D01*
X178189248Y-101316422D01*
X178161657Y-101288832D01*
X178125609Y-101273901D01*
X178086591Y-101273902D01*
X178050543Y-101288833D01*
X178035389Y-101301270D01*
X178004462Y-101332197D01*
X177899398Y-101367219D01*
X177836613Y-101367219D01*
X177731548Y-101332197D01*
X177664478Y-101265127D01*
X177629024Y-101194218D01*
X177587054Y-101026337D01*
X177587054Y-100908100D01*
X177629024Y-100740218D01*
X177664477Y-100669312D01*
X177731549Y-100602240D01*
X177836613Y-100567219D01*
X177899398Y-100567219D01*
X178004463Y-100602240D01*
X178035390Y-100633167D01*
X178050543Y-100645604D01*
X178086592Y-100660535D01*
X178125610Y-100660535D01*
X178161658Y-100645604D01*
X178189248Y-100618014D01*
X178204179Y-100581966D01*
X178204179Y-100542948D01*
X178189248Y-100506899D01*
X178176811Y-100491746D01*
X178129193Y-100444127D01*
X178114039Y-100431691D01*
X178110720Y-100430316D01*
X178108005Y-100427961D01*
X178090104Y-100419970D01*
X177947248Y-100372351D01*
X177937576Y-100370151D01*
X177935134Y-100369140D01*
X177931595Y-100368791D01*
X177928132Y-100368004D01*
X177925498Y-100368191D01*
X177915625Y-100367219D01*
X177820387Y-100367219D01*
X177810513Y-100368191D01*
X177807879Y-100368004D01*
X177804415Y-100368791D01*
X177800878Y-100369140D01*
X177798436Y-100370151D01*
X177788764Y-100372351D01*
X177645907Y-100419970D01*
X177628007Y-100427961D01*
X177625291Y-100430316D01*
X177621973Y-100431691D01*
X177606819Y-100444127D01*
X177511581Y-100539365D01*
X177505286Y-100547035D01*
X177503292Y-100548765D01*
X177501398Y-100551772D01*
X177499145Y-100554519D01*
X177498134Y-100556958D01*
X177492849Y-100565355D01*
X177445230Y-100660593D01*
X177444684Y-100662019D01*
X177444254Y-100662600D01*
X177441332Y-100670776D01*
X177438224Y-100678901D01*
X177438172Y-100679623D01*
X177437659Y-100681061D01*
X177390040Y-100871536D01*
X177389539Y-100874917D01*
X177388975Y-100876281D01*
X177388251Y-100883631D01*
X177387172Y-100890929D01*
X177387389Y-100892387D01*
X177387054Y-100895790D01*
X177275943Y-100895790D01*
X177275943Y-100209274D01*
X182934339Y-100209274D01*
X182934339Y-101773568D01*
G37*
G36*
X102624502Y-101081504D02*
G01*
X102425797Y-101081504D01*
X102525149Y-100783446D01*
X102624502Y-101081504D01*
G37*
G36*
X106686720Y-101773568D02*
G01*
X101075943Y-101773568D01*
X101075943Y-100895790D01*
X101187054Y-100895790D01*
X101187054Y-101038647D01*
X101187389Y-101042049D01*
X101187172Y-101043508D01*
X101188251Y-101050805D01*
X101188975Y-101058156D01*
X101189539Y-101059519D01*
X101190040Y-101062901D01*
X101237659Y-101253376D01*
X101238172Y-101254813D01*
X101238224Y-101255536D01*
X101241332Y-101263660D01*
X101244254Y-101271837D01*
X101244684Y-101272417D01*
X101245230Y-101273844D01*
X101292849Y-101369082D01*
X101298131Y-101377474D01*
X101299144Y-101379918D01*
X101301400Y-101382667D01*
X101303292Y-101385672D01*
X101305286Y-101387401D01*
X101311581Y-101395071D01*
X101406819Y-101490311D01*
X101421972Y-101502747D01*
X101425291Y-101504122D01*
X101428007Y-101506477D01*
X101445907Y-101514468D01*
X101588764Y-101562087D01*
X101598436Y-101564286D01*
X101600878Y-101565298D01*
X101604415Y-101565646D01*
X101607879Y-101566434D01*
X101610513Y-101566246D01*
X101620387Y-101567219D01*
X101715625Y-101567219D01*
X101725498Y-101566246D01*
X101728132Y-101566434D01*
X101731595Y-101565646D01*
X101735134Y-101565298D01*
X101737576Y-101564286D01*
X101747248Y-101562087D01*
X101890104Y-101514468D01*
X101908005Y-101506477D01*
X101910720Y-101504122D01*
X101914040Y-101502747D01*
X101929193Y-101490310D01*
X101964790Y-101454712D01*
X102092601Y-101454712D01*
X102095367Y-101493632D01*
X102112817Y-101528531D01*
X102142293Y-101554096D01*
X102179309Y-101566434D01*
X102218229Y-101563668D01*
X102253128Y-101546218D01*
X102278693Y-101516742D01*
X102286684Y-101498842D01*
X102359130Y-101281504D01*
X102691168Y-101281504D01*
X102763614Y-101498841D01*
X102771605Y-101516742D01*
X102797170Y-101546218D01*
X102832069Y-101563667D01*
X102870989Y-101566434D01*
X102908005Y-101554095D01*
X102937481Y-101528530D01*
X102954931Y-101493631D01*
X102957697Y-101454711D01*
X102953350Y-101435596D01*
X102630558Y-100467219D01*
X103091816Y-100467219D01*
X103091816Y-101467219D01*
X103093737Y-101486728D01*
X103108669Y-101522776D01*
X103136259Y-101550366D01*
X103172307Y-101565298D01*
X103211325Y-101565298D01*
X103247373Y-101550366D01*
X103274963Y-101522776D01*
X103289895Y-101486728D01*
X103291816Y-101467219D01*
X103291816Y-100843775D01*
X103676420Y-101516833D01*
X103679338Y-101520943D01*
X103680097Y-101522776D01*
X103681963Y-101524642D01*
X103687767Y-101532818D01*
X103698283Y-101540962D01*
X103707687Y-101550366D01*
X103713574Y-101552804D01*
X103718616Y-101556709D01*
X103731448Y-101560208D01*
X103743735Y-101565298D01*
X103750111Y-101565298D01*
X103756260Y-101566975D01*
X103769453Y-101565298D01*
X103782753Y-101565298D01*
X103788641Y-101562858D01*
X103794966Y-101562055D01*
X103806515Y-101555454D01*
X103818801Y-101550366D01*
X103823308Y-101545858D01*
X103828843Y-101542696D01*
X103836987Y-101532179D01*
X103846391Y-101522776D01*
X103848829Y-101516888D01*
X103852734Y-101511847D01*
X103856233Y-101499014D01*
X103861323Y-101486728D01*
X103862305Y-101476750D01*
X103863000Y-101474204D01*
X103862749Y-101472236D01*
X103863244Y-101467219D01*
X103863244Y-100740426D01*
X104092601Y-100740426D01*
X104095367Y-100779346D01*
X104112816Y-100814245D01*
X104142293Y-100839809D01*
X104179309Y-100852148D01*
X104218229Y-100849382D01*
X104236537Y-100842376D01*
X104331775Y-100794757D01*
X104340171Y-100789471D01*
X104342611Y-100788461D01*
X104345357Y-100786207D01*
X104348365Y-100784314D01*
X104350094Y-100782319D01*
X104357765Y-100776025D01*
X104377530Y-100756260D01*
X104377530Y-101367219D01*
X104191816Y-101367219D01*
X104172307Y-101369140D01*
X104136259Y-101384072D01*
X104108669Y-101411662D01*
X104093737Y-101447710D01*
X104093737Y-101486728D01*
X104108669Y-101522776D01*
X104136259Y-101550366D01*
X104172307Y-101565298D01*
X104191816Y-101567219D01*
X104763244Y-101567219D01*
X104782753Y-101565298D01*
X104818801Y-101550366D01*
X104826219Y-101542948D01*
X104855642Y-101542948D01*
X104855642Y-101581966D01*
X104870574Y-101618014D01*
X104898164Y-101645604D01*
X104934212Y-101660536D01*
X104953721Y-101662457D01*
X105715625Y-101662457D01*
X105735134Y-101660536D01*
X105771182Y-101645604D01*
X105798772Y-101618014D01*
X105813704Y-101581966D01*
X105813704Y-101542948D01*
X105798772Y-101506900D01*
X105771182Y-101479310D01*
X105735134Y-101464378D01*
X105715625Y-101462457D01*
X104953721Y-101462457D01*
X104934212Y-101464378D01*
X104898164Y-101479310D01*
X104870574Y-101506900D01*
X104855642Y-101542948D01*
X104826219Y-101542948D01*
X104846391Y-101522776D01*
X104861323Y-101486728D01*
X104861323Y-101447710D01*
X104846391Y-101411662D01*
X104818801Y-101384072D01*
X104782753Y-101369140D01*
X104763244Y-101367219D01*
X104577530Y-101367219D01*
X104577530Y-100740426D01*
X105806887Y-100740426D01*
X105809653Y-100779346D01*
X105827102Y-100814245D01*
X105856579Y-100839809D01*
X105893595Y-100852148D01*
X105932515Y-100849382D01*
X105950823Y-100842376D01*
X106046061Y-100794757D01*
X106054457Y-100789471D01*
X106056897Y-100788461D01*
X106059643Y-100786207D01*
X106062651Y-100784314D01*
X106064380Y-100782319D01*
X106072051Y-100776025D01*
X106091816Y-100756260D01*
X106091816Y-101367219D01*
X105906102Y-101367219D01*
X105886593Y-101369140D01*
X105850545Y-101384072D01*
X105822955Y-101411662D01*
X105808023Y-101447710D01*
X105808023Y-101486728D01*
X105822955Y-101522776D01*
X105850545Y-101550366D01*
X105886593Y-101565298D01*
X105906102Y-101567219D01*
X106477530Y-101567219D01*
X106497039Y-101565298D01*
X106533087Y-101550366D01*
X106560677Y-101522776D01*
X106575609Y-101486728D01*
X106575609Y-101447710D01*
X106560677Y-101411662D01*
X106533087Y-101384072D01*
X106497039Y-101369140D01*
X106477530Y-101367219D01*
X106291816Y-101367219D01*
X106291816Y-100467219D01*
X106291809Y-100467148D01*
X106291816Y-100467114D01*
X106291795Y-100467012D01*
X106289895Y-100447710D01*
X106286105Y-100438561D01*
X106284164Y-100428854D01*
X106278712Y-100420713D01*
X106274963Y-100411662D01*
X106267963Y-100404662D01*
X106262453Y-100396434D01*
X106254298Y-100390997D01*
X106247373Y-100384072D01*
X106238229Y-100380284D01*
X106229988Y-100374790D01*
X106220374Y-100372888D01*
X106211325Y-100369140D01*
X106201424Y-100369140D01*
X106191712Y-100367219D01*
X106182107Y-100369140D01*
X106172307Y-100369140D01*
X106163158Y-100372929D01*
X106153451Y-100374871D01*
X106145310Y-100380322D01*
X106136259Y-100384072D01*
X106129259Y-100391071D01*
X106121031Y-100396582D01*
X106108742Y-100411588D01*
X106108669Y-100411662D01*
X106108655Y-100411694D01*
X106108611Y-100411749D01*
X106018867Y-100546365D01*
X105942103Y-100623128D01*
X105861381Y-100663490D01*
X105844790Y-100673933D01*
X105819226Y-100703410D01*
X105806887Y-100740426D01*
X104577530Y-100740426D01*
X104577530Y-100467219D01*
X104577523Y-100467148D01*
X104577530Y-100467114D01*
X104577509Y-100467012D01*
X104575609Y-100447710D01*
X104571819Y-100438561D01*
X104569878Y-100428854D01*
X104564426Y-100420713D01*
X104560677Y-100411662D01*
X104553677Y-100404662D01*
X104548167Y-100396434D01*
X104540012Y-100390997D01*
X104533087Y-100384072D01*
X104523943Y-100380284D01*
X104515702Y-100374790D01*
X104506088Y-100372888D01*
X104497039Y-100369140D01*
X104487138Y-100369140D01*
X104477426Y-100367219D01*
X104467821Y-100369140D01*
X104458021Y-100369140D01*
X104448872Y-100372929D01*
X104439165Y-100374871D01*
X104431024Y-100380322D01*
X104421973Y-100384072D01*
X104414973Y-100391071D01*
X104406745Y-100396582D01*
X104394456Y-100411588D01*
X104394383Y-100411662D01*
X104394369Y-100411694D01*
X104394325Y-100411749D01*
X104304581Y-100546365D01*
X104227817Y-100623128D01*
X104147095Y-100663490D01*
X104130504Y-100673933D01*
X104104940Y-100703410D01*
X104092601Y-100740426D01*
X103863244Y-100740426D01*
X103863244Y-100467219D01*
X103861323Y-100447710D01*
X103846391Y-100411662D01*
X103818801Y-100384072D01*
X103782753Y-100369140D01*
X103743735Y-100369140D01*
X103707687Y-100384072D01*
X103680097Y-100411662D01*
X103665165Y-100447710D01*
X103663244Y-100467219D01*
X103663244Y-101090662D01*
X103278640Y-100417605D01*
X103275721Y-100413494D01*
X103274963Y-100411662D01*
X103273096Y-100409795D01*
X103267293Y-100401620D01*
X103256778Y-100393477D01*
X103247373Y-100384072D01*
X103241482Y-100381632D01*
X103236444Y-100377730D01*
X103223615Y-100374231D01*
X103211325Y-100369140D01*
X103204950Y-100369140D01*
X103198801Y-100367463D01*
X103185608Y-100369140D01*
X103172307Y-100369140D01*
X103166418Y-100371579D01*
X103160094Y-100372383D01*
X103148544Y-100378983D01*
X103136259Y-100384072D01*
X103131751Y-100388579D01*
X103126217Y-100391742D01*
X103118074Y-100402256D01*
X103108669Y-100411662D01*
X103106229Y-100417552D01*
X103102327Y-100422591D01*
X103098828Y-100435419D01*
X103093737Y-100447710D01*
X103092754Y-100457687D01*
X103092060Y-100460234D01*
X103092310Y-100462201D01*
X103091816Y-100467219D01*
X102630558Y-100467219D01*
X102620017Y-100435596D01*
X102612026Y-100417696D01*
X102607341Y-100412294D01*
X102604148Y-100405908D01*
X102594679Y-100397695D01*
X102586461Y-100388220D01*
X102580069Y-100385023D01*
X102574672Y-100380343D01*
X102562778Y-100376378D01*
X102551562Y-100370770D01*
X102544434Y-100370263D01*
X102537656Y-100368004D01*
X102525151Y-100368893D01*
X102512642Y-100368004D01*
X102505860Y-100370264D01*
X102498736Y-100370771D01*
X102487527Y-100376374D01*
X102475626Y-100380342D01*
X102470225Y-100385025D01*
X102463837Y-100388220D01*
X102455621Y-100397691D01*
X102446150Y-100405907D01*
X102442955Y-100412296D01*
X102438272Y-100417696D01*
X102430281Y-100435597D01*
X102096948Y-101435596D01*
X102092601Y-101454712D01*
X101964790Y-101454712D01*
X101976812Y-101442690D01*
X101989249Y-101427537D01*
X102004180Y-101391488D01*
X102004179Y-101352470D01*
X101989248Y-101316422D01*
X101961657Y-101288832D01*
X101925609Y-101273901D01*
X101886591Y-101273902D01*
X101850543Y-101288833D01*
X101835389Y-101301270D01*
X101804462Y-101332197D01*
X101699398Y-101367219D01*
X101636613Y-101367219D01*
X101531548Y-101332197D01*
X101464478Y-101265127D01*
X101429024Y-101194218D01*
X101387054Y-101026337D01*
X101387054Y-100908100D01*
X101429024Y-100740218D01*
X101464477Y-100669312D01*
X101531549Y-100602240D01*
X101636613Y-100567219D01*
X101699398Y-100567219D01*
X101804463Y-100602240D01*
X101835390Y-100633167D01*
X101850543Y-100645604D01*
X101886592Y-100660535D01*
X101925610Y-100660535D01*
X101961658Y-100645604D01*
X101989248Y-100618014D01*
X102004179Y-100581966D01*
X102004179Y-100542948D01*
X101989248Y-100506899D01*
X101976811Y-100491746D01*
X101929193Y-100444127D01*
X101914039Y-100431691D01*
X101910720Y-100430316D01*
X101908005Y-100427961D01*
X101890104Y-100419970D01*
X101747248Y-100372351D01*
X101737576Y-100370151D01*
X101735134Y-100369140D01*
X101731595Y-100368791D01*
X101728132Y-100368004D01*
X101725498Y-100368191D01*
X101715625Y-100367219D01*
X101620387Y-100367219D01*
X101610513Y-100368191D01*
X101607879Y-100368004D01*
X101604415Y-100368791D01*
X101600878Y-100369140D01*
X101598436Y-100370151D01*
X101588764Y-100372351D01*
X101445907Y-100419970D01*
X101428007Y-100427961D01*
X101425291Y-100430316D01*
X101421973Y-100431691D01*
X101406819Y-100444127D01*
X101311581Y-100539365D01*
X101305286Y-100547035D01*
X101303292Y-100548765D01*
X101301398Y-100551772D01*
X101299145Y-100554519D01*
X101298134Y-100556958D01*
X101292849Y-100565355D01*
X101245230Y-100660593D01*
X101244684Y-100662019D01*
X101244254Y-100662600D01*
X101241332Y-100670776D01*
X101238224Y-100678901D01*
X101238172Y-100679623D01*
X101237659Y-100681061D01*
X101190040Y-100871536D01*
X101189539Y-100874917D01*
X101188975Y-100876281D01*
X101188251Y-100883631D01*
X101187172Y-100890929D01*
X101187389Y-100892387D01*
X101187054Y-100895790D01*
X101075943Y-100895790D01*
X101075943Y-100256108D01*
X106686720Y-100256108D01*
X106686720Y-101773568D01*
G37*
G36*
X204224502Y-101081504D02*
G01*
X204025797Y-101081504D01*
X204125149Y-100783446D01*
X204224502Y-101081504D01*
G37*
G36*
X208288641Y-101773568D02*
G01*
X202675943Y-101773568D01*
X202675943Y-100895790D01*
X202787054Y-100895790D01*
X202787054Y-101038647D01*
X202787389Y-101042049D01*
X202787172Y-101043508D01*
X202788251Y-101050805D01*
X202788975Y-101058156D01*
X202789539Y-101059519D01*
X202790040Y-101062901D01*
X202837659Y-101253376D01*
X202838172Y-101254813D01*
X202838224Y-101255536D01*
X202841332Y-101263660D01*
X202844254Y-101271837D01*
X202844684Y-101272417D01*
X202845230Y-101273844D01*
X202892849Y-101369082D01*
X202898131Y-101377474D01*
X202899144Y-101379918D01*
X202901400Y-101382667D01*
X202903292Y-101385672D01*
X202905286Y-101387401D01*
X202911581Y-101395071D01*
X203006819Y-101490311D01*
X203021972Y-101502747D01*
X203025291Y-101504122D01*
X203028007Y-101506477D01*
X203045907Y-101514468D01*
X203188764Y-101562087D01*
X203198436Y-101564286D01*
X203200878Y-101565298D01*
X203204415Y-101565646D01*
X203207879Y-101566434D01*
X203210513Y-101566246D01*
X203220387Y-101567219D01*
X203315625Y-101567219D01*
X203325498Y-101566246D01*
X203328132Y-101566434D01*
X203331595Y-101565646D01*
X203335134Y-101565298D01*
X203337576Y-101564286D01*
X203347248Y-101562087D01*
X203490104Y-101514468D01*
X203508005Y-101506477D01*
X203510720Y-101504122D01*
X203514040Y-101502747D01*
X203529193Y-101490310D01*
X203564790Y-101454712D01*
X203692601Y-101454712D01*
X203695367Y-101493632D01*
X203712817Y-101528531D01*
X203742293Y-101554096D01*
X203779309Y-101566434D01*
X203818229Y-101563668D01*
X203853128Y-101546218D01*
X203878693Y-101516742D01*
X203886684Y-101498842D01*
X203959130Y-101281504D01*
X204291168Y-101281504D01*
X204363614Y-101498841D01*
X204371605Y-101516742D01*
X204397170Y-101546218D01*
X204432069Y-101563667D01*
X204470989Y-101566434D01*
X204508005Y-101554095D01*
X204537481Y-101528530D01*
X204554931Y-101493631D01*
X204557697Y-101454711D01*
X204553350Y-101435596D01*
X204230558Y-100467219D01*
X204691816Y-100467219D01*
X204691816Y-101467219D01*
X204693737Y-101486728D01*
X204708669Y-101522776D01*
X204736259Y-101550366D01*
X204772307Y-101565298D01*
X204811325Y-101565298D01*
X204847373Y-101550366D01*
X204874963Y-101522776D01*
X204889895Y-101486728D01*
X204891816Y-101467219D01*
X204891816Y-100843775D01*
X205276420Y-101516833D01*
X205279338Y-101520943D01*
X205280097Y-101522776D01*
X205281963Y-101524642D01*
X205287767Y-101532818D01*
X205298283Y-101540962D01*
X205307687Y-101550366D01*
X205313574Y-101552804D01*
X205318616Y-101556709D01*
X205331448Y-101560208D01*
X205343735Y-101565298D01*
X205350111Y-101565298D01*
X205356260Y-101566975D01*
X205369453Y-101565298D01*
X205382753Y-101565298D01*
X205388641Y-101562858D01*
X205394966Y-101562055D01*
X205406515Y-101555454D01*
X205418801Y-101550366D01*
X205423308Y-101545858D01*
X205428843Y-101542696D01*
X205436987Y-101532179D01*
X205446391Y-101522776D01*
X205448829Y-101516888D01*
X205452734Y-101511847D01*
X205456233Y-101499014D01*
X205461323Y-101486728D01*
X205462305Y-101476750D01*
X205463000Y-101474204D01*
X205462749Y-101472236D01*
X205463244Y-101467219D01*
X205463244Y-100740426D01*
X205692601Y-100740426D01*
X205695367Y-100779346D01*
X205712816Y-100814245D01*
X205742293Y-100839809D01*
X205779309Y-100852148D01*
X205818229Y-100849382D01*
X205836537Y-100842376D01*
X205931775Y-100794757D01*
X205940171Y-100789471D01*
X205942611Y-100788461D01*
X205945357Y-100786207D01*
X205948365Y-100784314D01*
X205950094Y-100782319D01*
X205957765Y-100776025D01*
X205977530Y-100756260D01*
X205977530Y-101367219D01*
X205791816Y-101367219D01*
X205772307Y-101369140D01*
X205736259Y-101384072D01*
X205708669Y-101411662D01*
X205693737Y-101447710D01*
X205693737Y-101486728D01*
X205708669Y-101522776D01*
X205736259Y-101550366D01*
X205772307Y-101565298D01*
X205791816Y-101567219D01*
X206363244Y-101567219D01*
X206382753Y-101565298D01*
X206418801Y-101550366D01*
X206426219Y-101542948D01*
X206455642Y-101542948D01*
X206455642Y-101581966D01*
X206470574Y-101618014D01*
X206498164Y-101645604D01*
X206534212Y-101660536D01*
X206553721Y-101662457D01*
X207315625Y-101662457D01*
X207335134Y-101660536D01*
X207371182Y-101645604D01*
X207398772Y-101618014D01*
X207413704Y-101581966D01*
X207413704Y-101542948D01*
X207398772Y-101506900D01*
X207371182Y-101479310D01*
X207335134Y-101464378D01*
X207315625Y-101462457D01*
X206553721Y-101462457D01*
X206534212Y-101464378D01*
X206498164Y-101479310D01*
X206470574Y-101506900D01*
X206455642Y-101542948D01*
X206426219Y-101542948D01*
X206446391Y-101522776D01*
X206461323Y-101486728D01*
X206461323Y-101447710D01*
X206446391Y-101411662D01*
X206418801Y-101384072D01*
X206382753Y-101369140D01*
X206363244Y-101367219D01*
X206177530Y-101367219D01*
X206177530Y-100953062D01*
X207406569Y-100953062D01*
X207408023Y-100957880D01*
X207408023Y-100962918D01*
X207413619Y-100976427D01*
X207417840Y-100990417D01*
X207421027Y-100994313D01*
X207422955Y-100998966D01*
X207433291Y-101009302D01*
X207442547Y-101020615D01*
X207446984Y-101022995D01*
X207450545Y-101026556D01*
X207464050Y-101032150D01*
X207476931Y-101039060D01*
X207481940Y-101039560D01*
X207486593Y-101041488D01*
X207501214Y-101041488D01*
X207515755Y-101042942D01*
X207520574Y-101041488D01*
X207525611Y-101041488D01*
X207539120Y-101035891D01*
X207553110Y-101031671D01*
X207557006Y-101028483D01*
X207561659Y-101026556D01*
X207576813Y-101014120D01*
X207612956Y-100977975D01*
X207672566Y-100948171D01*
X207863447Y-100948171D01*
X207923056Y-100977976D01*
X207947725Y-101002644D01*
X207977530Y-101062254D01*
X207977530Y-101253135D01*
X207947725Y-101312743D01*
X207923056Y-101337413D01*
X207863447Y-101367219D01*
X207672566Y-101367219D01*
X207612956Y-101337414D01*
X207576813Y-101301270D01*
X207561660Y-101288833D01*
X207525612Y-101273902D01*
X207486594Y-101273901D01*
X207450545Y-101288832D01*
X207422955Y-101316422D01*
X207408024Y-101352470D01*
X207408023Y-101391488D01*
X207422954Y-101427537D01*
X207435391Y-101442690D01*
X207483009Y-101490310D01*
X207490677Y-101496603D01*
X207492409Y-101498600D01*
X207495417Y-101500493D01*
X207498163Y-101502747D01*
X207500603Y-101503757D01*
X207509000Y-101509043D01*
X207604237Y-101556662D01*
X207622546Y-101563668D01*
X207626129Y-101563922D01*
X207629450Y-101565298D01*
X207648959Y-101567219D01*
X207887054Y-101567219D01*
X207906563Y-101565298D01*
X207909883Y-101563922D01*
X207913467Y-101563668D01*
X207931775Y-101556662D01*
X208027013Y-101509043D01*
X208035408Y-101503758D01*
X208037850Y-101502747D01*
X208040597Y-101500491D01*
X208043603Y-101498600D01*
X208045333Y-101496605D01*
X208053003Y-101490310D01*
X208100622Y-101442690D01*
X208106914Y-101435023D01*
X208108911Y-101433292D01*
X208110804Y-101430284D01*
X208113059Y-101427537D01*
X208114070Y-101425095D01*
X208119354Y-101416701D01*
X208166973Y-101321464D01*
X208173979Y-101303155D01*
X208174233Y-101299571D01*
X208175609Y-101296251D01*
X208177530Y-101276742D01*
X208177530Y-101038647D01*
X208175609Y-101019138D01*
X208174233Y-101015817D01*
X208173979Y-101012234D01*
X208166973Y-100993925D01*
X208119354Y-100898688D01*
X208114068Y-100890291D01*
X208113058Y-100887851D01*
X208110804Y-100885105D01*
X208108911Y-100882097D01*
X208106913Y-100880364D01*
X208100621Y-100872698D01*
X208053003Y-100825079D01*
X208045332Y-100818784D01*
X208043603Y-100816790D01*
X208040595Y-100814896D01*
X208037849Y-100812643D01*
X208035409Y-100811632D01*
X208027013Y-100806347D01*
X207931775Y-100758728D01*
X207913467Y-100751722D01*
X207909883Y-100751467D01*
X207906563Y-100750092D01*
X207887054Y-100748171D01*
X207648959Y-100748171D01*
X207629450Y-100750092D01*
X207626129Y-100751467D01*
X207625792Y-100751491D01*
X207644220Y-100567219D01*
X208029911Y-100567219D01*
X208049420Y-100565298D01*
X208085468Y-100550366D01*
X208113058Y-100522776D01*
X208127990Y-100486728D01*
X208127990Y-100447710D01*
X208113058Y-100411662D01*
X208085468Y-100384072D01*
X208049420Y-100369140D01*
X208029911Y-100367219D01*
X207553721Y-100367219D01*
X207546504Y-100367929D01*
X207544068Y-100367686D01*
X207541689Y-100368403D01*
X207534212Y-100369140D01*
X207520702Y-100374736D01*
X207506713Y-100378957D01*
X207502816Y-100382144D01*
X207498164Y-100384072D01*
X207487827Y-100394408D01*
X207476515Y-100403664D01*
X207474134Y-100408101D01*
X207470574Y-100411662D01*
X207464979Y-100425167D01*
X207458070Y-100438048D01*
X207456593Y-100445412D01*
X207455642Y-100447710D01*
X207455642Y-100450160D01*
X207454217Y-100457269D01*
X207406598Y-100933459D01*
X207406569Y-100953062D01*
X206177530Y-100953062D01*
X206177530Y-100467219D01*
X206177523Y-100467148D01*
X206177530Y-100467114D01*
X206177509Y-100467012D01*
X206175609Y-100447710D01*
X206171819Y-100438561D01*
X206169878Y-100428854D01*
X206164426Y-100420713D01*
X206160677Y-100411662D01*
X206153677Y-100404662D01*
X206148167Y-100396434D01*
X206140012Y-100390997D01*
X206133087Y-100384072D01*
X206123943Y-100380284D01*
X206115702Y-100374790D01*
X206106088Y-100372888D01*
X206097039Y-100369140D01*
X206087138Y-100369140D01*
X206077426Y-100367219D01*
X206067821Y-100369140D01*
X206058021Y-100369140D01*
X206048872Y-100372929D01*
X206039165Y-100374871D01*
X206031024Y-100380322D01*
X206021973Y-100384072D01*
X206014973Y-100391071D01*
X206006745Y-100396582D01*
X205994456Y-100411588D01*
X205994383Y-100411662D01*
X205994369Y-100411694D01*
X205994325Y-100411749D01*
X205904581Y-100546365D01*
X205827817Y-100623128D01*
X205747095Y-100663490D01*
X205730504Y-100673933D01*
X205704940Y-100703410D01*
X205692601Y-100740426D01*
X205463244Y-100740426D01*
X205463244Y-100467219D01*
X205461323Y-100447710D01*
X205446391Y-100411662D01*
X205418801Y-100384072D01*
X205382753Y-100369140D01*
X205343735Y-100369140D01*
X205307687Y-100384072D01*
X205280097Y-100411662D01*
X205265165Y-100447710D01*
X205263244Y-100467219D01*
X205263244Y-101090662D01*
X204878640Y-100417605D01*
X204875721Y-100413494D01*
X204874963Y-100411662D01*
X204873096Y-100409795D01*
X204867293Y-100401620D01*
X204856778Y-100393477D01*
X204847373Y-100384072D01*
X204841482Y-100381632D01*
X204836444Y-100377730D01*
X204823615Y-100374231D01*
X204811325Y-100369140D01*
X204804950Y-100369140D01*
X204798801Y-100367463D01*
X204785608Y-100369140D01*
X204772307Y-100369140D01*
X204766418Y-100371579D01*
X204760094Y-100372383D01*
X204748544Y-100378983D01*
X204736259Y-100384072D01*
X204731751Y-100388579D01*
X204726217Y-100391742D01*
X204718074Y-100402256D01*
X204708669Y-100411662D01*
X204706229Y-100417552D01*
X204702327Y-100422591D01*
X204698828Y-100435419D01*
X204693737Y-100447710D01*
X204692754Y-100457687D01*
X204692060Y-100460234D01*
X204692310Y-100462201D01*
X204691816Y-100467219D01*
X204230558Y-100467219D01*
X204220017Y-100435596D01*
X204212026Y-100417696D01*
X204207341Y-100412294D01*
X204204148Y-100405908D01*
X204194679Y-100397695D01*
X204186461Y-100388220D01*
X204180069Y-100385023D01*
X204174672Y-100380343D01*
X204162778Y-100376378D01*
X204151562Y-100370770D01*
X204144434Y-100370263D01*
X204137656Y-100368004D01*
X204125151Y-100368893D01*
X204112642Y-100368004D01*
X204105860Y-100370264D01*
X204098736Y-100370771D01*
X204087527Y-100376374D01*
X204075626Y-100380342D01*
X204070225Y-100385025D01*
X204063837Y-100388220D01*
X204055621Y-100397691D01*
X204046150Y-100405907D01*
X204042955Y-100412296D01*
X204038272Y-100417696D01*
X204030281Y-100435597D01*
X203696948Y-101435596D01*
X203692601Y-101454712D01*
X203564790Y-101454712D01*
X203576812Y-101442690D01*
X203589249Y-101427537D01*
X203604180Y-101391488D01*
X203604179Y-101352470D01*
X203589248Y-101316422D01*
X203561657Y-101288832D01*
X203525609Y-101273901D01*
X203486591Y-101273902D01*
X203450543Y-101288833D01*
X203435389Y-101301270D01*
X203404462Y-101332197D01*
X203299398Y-101367219D01*
X203236613Y-101367219D01*
X203131548Y-101332197D01*
X203064478Y-101265127D01*
X203029024Y-101194218D01*
X202987054Y-101026337D01*
X202987054Y-100908100D01*
X203029024Y-100740218D01*
X203064477Y-100669312D01*
X203131549Y-100602240D01*
X203236613Y-100567219D01*
X203299398Y-100567219D01*
X203404463Y-100602240D01*
X203435390Y-100633167D01*
X203450543Y-100645604D01*
X203486592Y-100660535D01*
X203525610Y-100660535D01*
X203561658Y-100645604D01*
X203589248Y-100618014D01*
X203604179Y-100581966D01*
X203604179Y-100542948D01*
X203589248Y-100506899D01*
X203576811Y-100491746D01*
X203529193Y-100444127D01*
X203514039Y-100431691D01*
X203510720Y-100430316D01*
X203508005Y-100427961D01*
X203490104Y-100419970D01*
X203347248Y-100372351D01*
X203337576Y-100370151D01*
X203335134Y-100369140D01*
X203331595Y-100368791D01*
X203328132Y-100368004D01*
X203325498Y-100368191D01*
X203315625Y-100367219D01*
X203220387Y-100367219D01*
X203210513Y-100368191D01*
X203207879Y-100368004D01*
X203204415Y-100368791D01*
X203200878Y-100369140D01*
X203198436Y-100370151D01*
X203188764Y-100372351D01*
X203045907Y-100419970D01*
X203028007Y-100427961D01*
X203025291Y-100430316D01*
X203021973Y-100431691D01*
X203006819Y-100444127D01*
X202911581Y-100539365D01*
X202905286Y-100547035D01*
X202903292Y-100548765D01*
X202901398Y-100551772D01*
X202899145Y-100554519D01*
X202898134Y-100556958D01*
X202892849Y-100565355D01*
X202845230Y-100660593D01*
X202844684Y-100662019D01*
X202844254Y-100662600D01*
X202841332Y-100670776D01*
X202838224Y-100678901D01*
X202838172Y-100679623D01*
X202837659Y-100681061D01*
X202790040Y-100871536D01*
X202789539Y-100874917D01*
X202788975Y-100876281D01*
X202788251Y-100883631D01*
X202787172Y-100890929D01*
X202787389Y-100892387D01*
X202787054Y-100895790D01*
X202675943Y-100895790D01*
X202675943Y-100256108D01*
X208288641Y-100256108D01*
X208288641Y-101773568D01*
G37*
G36*
X153424502Y-101081504D02*
G01*
X153225797Y-101081504D01*
X153325149Y-100783446D01*
X153424502Y-101081504D01*
G37*
G36*
X157488641Y-101773568D02*
G01*
X151875943Y-101773568D01*
X151875943Y-100895790D01*
X151987054Y-100895790D01*
X151987054Y-101038647D01*
X151987389Y-101042049D01*
X151987172Y-101043508D01*
X151988251Y-101050805D01*
X151988975Y-101058156D01*
X151989539Y-101059519D01*
X151990040Y-101062901D01*
X152037659Y-101253376D01*
X152038172Y-101254813D01*
X152038224Y-101255536D01*
X152041332Y-101263660D01*
X152044254Y-101271837D01*
X152044684Y-101272417D01*
X152045230Y-101273844D01*
X152092849Y-101369082D01*
X152098131Y-101377474D01*
X152099144Y-101379918D01*
X152101400Y-101382667D01*
X152103292Y-101385672D01*
X152105286Y-101387401D01*
X152111581Y-101395071D01*
X152206819Y-101490311D01*
X152221972Y-101502747D01*
X152225291Y-101504122D01*
X152228007Y-101506477D01*
X152245907Y-101514468D01*
X152388764Y-101562087D01*
X152398436Y-101564286D01*
X152400878Y-101565298D01*
X152404415Y-101565646D01*
X152407879Y-101566434D01*
X152410513Y-101566246D01*
X152420387Y-101567219D01*
X152515625Y-101567219D01*
X152525498Y-101566246D01*
X152528132Y-101566434D01*
X152531595Y-101565646D01*
X152535134Y-101565298D01*
X152537576Y-101564286D01*
X152547248Y-101562087D01*
X152690104Y-101514468D01*
X152708005Y-101506477D01*
X152710720Y-101504122D01*
X152714040Y-101502747D01*
X152729193Y-101490310D01*
X152764790Y-101454712D01*
X152892601Y-101454712D01*
X152895367Y-101493632D01*
X152912817Y-101528531D01*
X152942293Y-101554096D01*
X152979309Y-101566434D01*
X153018229Y-101563668D01*
X153053128Y-101546218D01*
X153078693Y-101516742D01*
X153086684Y-101498842D01*
X153159130Y-101281504D01*
X153491168Y-101281504D01*
X153563614Y-101498841D01*
X153571605Y-101516742D01*
X153597170Y-101546218D01*
X153632069Y-101563667D01*
X153670989Y-101566434D01*
X153708005Y-101554095D01*
X153737481Y-101528530D01*
X153754931Y-101493631D01*
X153757697Y-101454711D01*
X153753350Y-101435596D01*
X153430558Y-100467219D01*
X153891816Y-100467219D01*
X153891816Y-101467219D01*
X153893737Y-101486728D01*
X153908669Y-101522776D01*
X153936259Y-101550366D01*
X153972307Y-101565298D01*
X154011325Y-101565298D01*
X154047373Y-101550366D01*
X154074963Y-101522776D01*
X154089895Y-101486728D01*
X154091816Y-101467219D01*
X154091816Y-100843775D01*
X154476420Y-101516833D01*
X154479338Y-101520943D01*
X154480097Y-101522776D01*
X154481963Y-101524642D01*
X154487767Y-101532818D01*
X154498283Y-101540962D01*
X154507687Y-101550366D01*
X154513574Y-101552804D01*
X154518616Y-101556709D01*
X154531448Y-101560208D01*
X154543735Y-101565298D01*
X154550111Y-101565298D01*
X154556260Y-101566975D01*
X154569453Y-101565298D01*
X154582753Y-101565298D01*
X154588641Y-101562858D01*
X154594966Y-101562055D01*
X154606515Y-101555454D01*
X154618801Y-101550366D01*
X154623308Y-101545858D01*
X154628843Y-101542696D01*
X154636987Y-101532179D01*
X154646391Y-101522776D01*
X154648829Y-101516888D01*
X154652734Y-101511847D01*
X154656233Y-101499014D01*
X154661323Y-101486728D01*
X154662305Y-101476750D01*
X154663000Y-101474204D01*
X154662749Y-101472236D01*
X154663244Y-101467219D01*
X154663244Y-100740426D01*
X154892601Y-100740426D01*
X154895367Y-100779346D01*
X154912816Y-100814245D01*
X154942293Y-100839809D01*
X154979309Y-100852148D01*
X155018229Y-100849382D01*
X155036537Y-100842376D01*
X155131775Y-100794757D01*
X155140171Y-100789471D01*
X155142611Y-100788461D01*
X155145357Y-100786207D01*
X155148365Y-100784314D01*
X155150094Y-100782319D01*
X155157765Y-100776025D01*
X155177530Y-100756260D01*
X155177530Y-101367219D01*
X154991816Y-101367219D01*
X154972307Y-101369140D01*
X154936259Y-101384072D01*
X154908669Y-101411662D01*
X154893737Y-101447710D01*
X154893737Y-101486728D01*
X154908669Y-101522776D01*
X154936259Y-101550366D01*
X154972307Y-101565298D01*
X154991816Y-101567219D01*
X155563244Y-101567219D01*
X155582753Y-101565298D01*
X155618801Y-101550366D01*
X155626219Y-101542948D01*
X155655642Y-101542948D01*
X155655642Y-101581966D01*
X155670574Y-101618014D01*
X155698164Y-101645604D01*
X155734212Y-101660536D01*
X155753721Y-101662457D01*
X156515625Y-101662457D01*
X156535134Y-101660536D01*
X156571182Y-101645604D01*
X156598772Y-101618014D01*
X156613704Y-101581966D01*
X156613704Y-101542948D01*
X156598772Y-101506900D01*
X156571182Y-101479310D01*
X156535134Y-101464378D01*
X156515625Y-101462457D01*
X155753721Y-101462457D01*
X155734212Y-101464378D01*
X155698164Y-101479310D01*
X155670574Y-101506900D01*
X155655642Y-101542948D01*
X155626219Y-101542948D01*
X155646391Y-101522776D01*
X155661323Y-101486728D01*
X155661323Y-101447710D01*
X155646391Y-101411662D01*
X155618801Y-101384072D01*
X155582753Y-101369140D01*
X155563244Y-101367219D01*
X155377530Y-101367219D01*
X155377530Y-100467219D01*
X155377523Y-100467148D01*
X155377530Y-100467114D01*
X155377509Y-100467012D01*
X155375609Y-100447710D01*
X156560404Y-100447710D01*
X156560404Y-100486728D01*
X156575336Y-100522776D01*
X156602926Y-100550366D01*
X156638974Y-100565298D01*
X156658483Y-100567219D01*
X157057153Y-100567219D01*
X156868939Y-100782321D01*
X156862909Y-100790754D01*
X156861050Y-100792614D01*
X156860319Y-100794377D01*
X156857538Y-100798268D01*
X156852333Y-100813656D01*
X156846118Y-100828662D01*
X156846118Y-100832035D01*
X156845038Y-100835229D01*
X156846118Y-100851431D01*
X156846118Y-100867680D01*
X156847408Y-100870795D01*
X156847633Y-100874161D01*
X156854833Y-100888721D01*
X156861050Y-100903728D01*
X156863434Y-100906112D01*
X156864930Y-100909136D01*
X156877155Y-100919833D01*
X156888640Y-100931318D01*
X156891754Y-100932608D01*
X156894294Y-100934830D01*
X156909682Y-100940034D01*
X156924688Y-100946250D01*
X156929447Y-100946718D01*
X156931255Y-100947330D01*
X156933879Y-100947155D01*
X156944197Y-100948171D01*
X157063447Y-100948171D01*
X157123056Y-100977976D01*
X157147725Y-101002644D01*
X157177530Y-101062254D01*
X157177530Y-101253135D01*
X157147725Y-101312743D01*
X157123056Y-101337413D01*
X157063447Y-101367219D01*
X156824947Y-101367219D01*
X156765337Y-101337414D01*
X156729194Y-101301270D01*
X156714041Y-101288833D01*
X156677993Y-101273902D01*
X156638975Y-101273901D01*
X156602926Y-101288832D01*
X156575336Y-101316422D01*
X156560405Y-101352470D01*
X156560404Y-101391488D01*
X156575335Y-101427537D01*
X156587772Y-101442690D01*
X156635390Y-101490310D01*
X156643058Y-101496603D01*
X156644790Y-101498600D01*
X156647798Y-101500493D01*
X156650544Y-101502747D01*
X156652984Y-101503757D01*
X156661381Y-101509043D01*
X156756618Y-101556662D01*
X156774927Y-101563668D01*
X156778510Y-101563922D01*
X156781831Y-101565298D01*
X156801340Y-101567219D01*
X157087054Y-101567219D01*
X157106563Y-101565298D01*
X157109883Y-101563922D01*
X157113467Y-101563668D01*
X157131775Y-101556662D01*
X157227013Y-101509043D01*
X157235408Y-101503758D01*
X157237850Y-101502747D01*
X157240597Y-101500491D01*
X157243603Y-101498600D01*
X157245333Y-101496605D01*
X157253003Y-101490310D01*
X157300622Y-101442690D01*
X157306914Y-101435023D01*
X157308911Y-101433292D01*
X157310804Y-101430284D01*
X157313059Y-101427537D01*
X157314070Y-101425095D01*
X157319354Y-101416701D01*
X157366973Y-101321464D01*
X157373979Y-101303155D01*
X157374233Y-101299571D01*
X157375609Y-101296251D01*
X157377530Y-101276742D01*
X157377530Y-101038647D01*
X157375609Y-101019138D01*
X157374233Y-101015817D01*
X157373979Y-101012234D01*
X157366973Y-100993925D01*
X157319354Y-100898688D01*
X157314068Y-100890291D01*
X157313058Y-100887851D01*
X157310804Y-100885105D01*
X157308911Y-100882097D01*
X157306913Y-100880364D01*
X157300621Y-100872698D01*
X157253003Y-100825079D01*
X157245332Y-100818784D01*
X157243603Y-100816790D01*
X157240595Y-100814896D01*
X157237849Y-100812643D01*
X157235409Y-100811632D01*
X157227013Y-100806347D01*
X157148165Y-100766923D01*
X157352788Y-100533069D01*
X157358817Y-100524635D01*
X157360677Y-100522776D01*
X157361407Y-100521012D01*
X157364189Y-100517122D01*
X157369393Y-100501733D01*
X157375609Y-100486728D01*
X157375609Y-100483354D01*
X157376689Y-100480161D01*
X157375609Y-100463958D01*
X157375609Y-100447710D01*
X157374318Y-100444594D01*
X157374094Y-100441229D01*
X157366891Y-100426663D01*
X157360677Y-100411662D01*
X157358293Y-100409278D01*
X157356798Y-100406254D01*
X157344564Y-100395549D01*
X157333087Y-100384072D01*
X157329973Y-100382782D01*
X157327434Y-100380560D01*
X157312042Y-100375354D01*
X157297039Y-100369140D01*
X157292279Y-100368671D01*
X157290472Y-100368060D01*
X157287847Y-100368234D01*
X157277530Y-100367219D01*
X156658483Y-100367219D01*
X156638974Y-100369140D01*
X156602926Y-100384072D01*
X156575336Y-100411662D01*
X156560404Y-100447710D01*
X155375609Y-100447710D01*
X155371819Y-100438561D01*
X155369878Y-100428854D01*
X155364426Y-100420713D01*
X155360677Y-100411662D01*
X155353677Y-100404662D01*
X155348167Y-100396434D01*
X155340012Y-100390997D01*
X155333087Y-100384072D01*
X155323943Y-100380284D01*
X155315702Y-100374790D01*
X155306088Y-100372888D01*
X155297039Y-100369140D01*
X155287138Y-100369140D01*
X155277426Y-100367219D01*
X155267821Y-100369140D01*
X155258021Y-100369140D01*
X155248872Y-100372929D01*
X155239165Y-100374871D01*
X155231024Y-100380322D01*
X155221973Y-100384072D01*
X155214973Y-100391071D01*
X155206745Y-100396582D01*
X155194456Y-100411588D01*
X155194383Y-100411662D01*
X155194369Y-100411694D01*
X155194325Y-100411749D01*
X155104581Y-100546365D01*
X155027817Y-100623128D01*
X154947095Y-100663490D01*
X154930504Y-100673933D01*
X154904940Y-100703410D01*
X154892601Y-100740426D01*
X154663244Y-100740426D01*
X154663244Y-100467219D01*
X154661323Y-100447710D01*
X154646391Y-100411662D01*
X154618801Y-100384072D01*
X154582753Y-100369140D01*
X154543735Y-100369140D01*
X154507687Y-100384072D01*
X154480097Y-100411662D01*
X154465165Y-100447710D01*
X154463244Y-100467219D01*
X154463244Y-101090662D01*
X154078640Y-100417605D01*
X154075721Y-100413494D01*
X154074963Y-100411662D01*
X154073096Y-100409795D01*
X154067293Y-100401620D01*
X154056778Y-100393477D01*
X154047373Y-100384072D01*
X154041482Y-100381632D01*
X154036444Y-100377730D01*
X154023615Y-100374231D01*
X154011325Y-100369140D01*
X154004950Y-100369140D01*
X153998801Y-100367463D01*
X153985608Y-100369140D01*
X153972307Y-100369140D01*
X153966418Y-100371579D01*
X153960094Y-100372383D01*
X153948544Y-100378983D01*
X153936259Y-100384072D01*
X153931751Y-100388579D01*
X153926217Y-100391742D01*
X153918074Y-100402256D01*
X153908669Y-100411662D01*
X153906229Y-100417552D01*
X153902327Y-100422591D01*
X153898828Y-100435419D01*
X153893737Y-100447710D01*
X153892754Y-100457687D01*
X153892060Y-100460234D01*
X153892310Y-100462201D01*
X153891816Y-100467219D01*
X153430558Y-100467219D01*
X153420017Y-100435596D01*
X153412026Y-100417696D01*
X153407341Y-100412294D01*
X153404148Y-100405908D01*
X153394679Y-100397695D01*
X153386461Y-100388220D01*
X153380069Y-100385023D01*
X153374672Y-100380343D01*
X153362778Y-100376378D01*
X153351562Y-100370770D01*
X153344434Y-100370263D01*
X153337656Y-100368004D01*
X153325151Y-100368893D01*
X153312642Y-100368004D01*
X153305860Y-100370264D01*
X153298736Y-100370771D01*
X153287527Y-100376374D01*
X153275626Y-100380342D01*
X153270225Y-100385025D01*
X153263837Y-100388220D01*
X153255621Y-100397691D01*
X153246150Y-100405907D01*
X153242955Y-100412296D01*
X153238272Y-100417696D01*
X153230281Y-100435597D01*
X152896948Y-101435596D01*
X152892601Y-101454712D01*
X152764790Y-101454712D01*
X152776812Y-101442690D01*
X152789249Y-101427537D01*
X152804180Y-101391488D01*
X152804179Y-101352470D01*
X152789248Y-101316422D01*
X152761657Y-101288832D01*
X152725609Y-101273901D01*
X152686591Y-101273902D01*
X152650543Y-101288833D01*
X152635389Y-101301270D01*
X152604462Y-101332197D01*
X152499398Y-101367219D01*
X152436613Y-101367219D01*
X152331548Y-101332197D01*
X152264478Y-101265127D01*
X152229024Y-101194218D01*
X152187054Y-101026337D01*
X152187054Y-100908100D01*
X152229024Y-100740218D01*
X152264477Y-100669312D01*
X152331549Y-100602240D01*
X152436613Y-100567219D01*
X152499398Y-100567219D01*
X152604463Y-100602240D01*
X152635390Y-100633167D01*
X152650543Y-100645604D01*
X152686592Y-100660535D01*
X152725610Y-100660535D01*
X152761658Y-100645604D01*
X152789248Y-100618014D01*
X152804179Y-100581966D01*
X152804179Y-100542948D01*
X152789248Y-100506899D01*
X152776811Y-100491746D01*
X152729193Y-100444127D01*
X152714039Y-100431691D01*
X152710720Y-100430316D01*
X152708005Y-100427961D01*
X152690104Y-100419970D01*
X152547248Y-100372351D01*
X152537576Y-100370151D01*
X152535134Y-100369140D01*
X152531595Y-100368791D01*
X152528132Y-100368004D01*
X152525498Y-100368191D01*
X152515625Y-100367219D01*
X152420387Y-100367219D01*
X152410513Y-100368191D01*
X152407879Y-100368004D01*
X152404415Y-100368791D01*
X152400878Y-100369140D01*
X152398436Y-100370151D01*
X152388764Y-100372351D01*
X152245907Y-100419970D01*
X152228007Y-100427961D01*
X152225291Y-100430316D01*
X152221973Y-100431691D01*
X152206819Y-100444127D01*
X152111581Y-100539365D01*
X152105286Y-100547035D01*
X152103292Y-100548765D01*
X152101398Y-100551772D01*
X152099145Y-100554519D01*
X152098134Y-100556958D01*
X152092849Y-100565355D01*
X152045230Y-100660593D01*
X152044684Y-100662019D01*
X152044254Y-100662600D01*
X152041332Y-100670776D01*
X152038224Y-100678901D01*
X152038172Y-100679623D01*
X152037659Y-100681061D01*
X151990040Y-100871536D01*
X151989539Y-100874917D01*
X151988975Y-100876281D01*
X151988251Y-100883631D01*
X151987172Y-100890929D01*
X151987389Y-100892387D01*
X151987054Y-100895790D01*
X151875943Y-100895790D01*
X151875943Y-100256108D01*
X157488641Y-100256108D01*
X157488641Y-101773568D01*
G37*
D11*
%TO.C,J5*%
X170576486Y-92636642D02*
X177370151Y-99430307D01*
X173268931Y-82601165D02*
X170576486Y-92636642D01*
X173268931Y-82601165D02*
X183309847Y-79914159D01*
X183309847Y-79914159D02*
X190098073Y-86702385D01*
X187411067Y-96743301D02*
X177370151Y-99430307D01*
X187411067Y-96743301D02*
X190098073Y-86702385D01*
D12*
X178340000Y-89672234D02*
G75*
G02*
X177340000Y-89672234I-500000J0D01*
G01*
X177340000Y-89672234D02*
G75*
G02*
X178340000Y-89672234I500000J0D01*
G01*
X180839998Y-89672233D02*
G75*
G02*
X179840000Y-89672233I-499999J0D01*
G01*
X179840000Y-89672233D02*
G75*
G02*
X180839998Y-89672233I499999J0D01*
G01*
X180840000Y-87172234D02*
G75*
G02*
X179840000Y-87172234I-500000J0D01*
G01*
X179840000Y-87172234D02*
G75*
G02*
X180840000Y-87172234I500000J0D01*
G01*
X180839999Y-92172232D02*
G75*
G02*
X179840001Y-92172232I-499999J0D01*
G01*
X179840001Y-92172232D02*
G75*
G02*
X180839999Y-92172232I499999J0D01*
G01*
X183339998Y-89672233D02*
G75*
G02*
X182340000Y-89672233I-499999J0D01*
G01*
X182340000Y-89672233D02*
G75*
G02*
X183339998Y-89672233I499999J0D01*
G01*
D11*
%TO.C,J4*%
X145176486Y-92636642D02*
X151970151Y-99430307D01*
X147868931Y-82601165D02*
X145176486Y-92636642D01*
X147868931Y-82601165D02*
X157909847Y-79914159D01*
X157909847Y-79914159D02*
X164698073Y-86702385D01*
X162011067Y-96743301D02*
X151970151Y-99430307D01*
X162011067Y-96743301D02*
X164698073Y-86702385D01*
D12*
X152940000Y-89672234D02*
G75*
G02*
X151940000Y-89672234I-500000J0D01*
G01*
X151940000Y-89672234D02*
G75*
G02*
X152940000Y-89672234I500000J0D01*
G01*
X155439998Y-89672233D02*
G75*
G02*
X154440000Y-89672233I-499999J0D01*
G01*
X154440000Y-89672233D02*
G75*
G02*
X155439998Y-89672233I499999J0D01*
G01*
X155440000Y-87172234D02*
G75*
G02*
X154440000Y-87172234I-500000J0D01*
G01*
X154440000Y-87172234D02*
G75*
G02*
X155440000Y-87172234I500000J0D01*
G01*
X155439999Y-92172232D02*
G75*
G02*
X154440001Y-92172232I-499999J0D01*
G01*
X154440001Y-92172232D02*
G75*
G02*
X155439999Y-92172232I499999J0D01*
G01*
X157939998Y-89672233D02*
G75*
G02*
X156940000Y-89672233I-499999J0D01*
G01*
X156940000Y-89672233D02*
G75*
G02*
X157939998Y-89672233I499999J0D01*
G01*
D11*
%TO.C,J6*%
X195976486Y-92636642D02*
X202770151Y-99430307D01*
X198668931Y-82601165D02*
X195976486Y-92636642D01*
X198668931Y-82601165D02*
X208709847Y-79914159D01*
X208709847Y-79914159D02*
X215498073Y-86702385D01*
X212811067Y-96743301D02*
X202770151Y-99430307D01*
X212811067Y-96743301D02*
X215498073Y-86702385D01*
D12*
X203740000Y-89672234D02*
G75*
G02*
X202740000Y-89672234I-500000J0D01*
G01*
X202740000Y-89672234D02*
G75*
G02*
X203740000Y-89672234I500000J0D01*
G01*
X206239998Y-89672233D02*
G75*
G02*
X205240000Y-89672233I-499999J0D01*
G01*
X205240000Y-89672233D02*
G75*
G02*
X206239998Y-89672233I499999J0D01*
G01*
X206240000Y-87172234D02*
G75*
G02*
X205240000Y-87172234I-500000J0D01*
G01*
X205240000Y-87172234D02*
G75*
G02*
X206240000Y-87172234I500000J0D01*
G01*
X206239999Y-92172232D02*
G75*
G02*
X205240001Y-92172232I-499999J0D01*
G01*
X205240001Y-92172232D02*
G75*
G02*
X206239999Y-92172232I499999J0D01*
G01*
X208739998Y-89672233D02*
G75*
G02*
X207740000Y-89672233I-499999J0D01*
G01*
X207740000Y-89672233D02*
G75*
G02*
X208739998Y-89672233I499999J0D01*
G01*
D11*
%TO.C,J1*%
X68976486Y-92636642D02*
X75770151Y-99430307D01*
X71668931Y-82601165D02*
X68976486Y-92636642D01*
X71668931Y-82601165D02*
X81709847Y-79914159D01*
X81709847Y-79914159D02*
X88498073Y-86702385D01*
X85811067Y-96743301D02*
X75770151Y-99430307D01*
X85811067Y-96743301D02*
X88498073Y-86702385D01*
D12*
X76740000Y-89672234D02*
G75*
G02*
X75740000Y-89672234I-500000J0D01*
G01*
X75740000Y-89672234D02*
G75*
G02*
X76740000Y-89672234I500000J0D01*
G01*
X79239998Y-89672233D02*
G75*
G02*
X78240000Y-89672233I-499999J0D01*
G01*
X78240000Y-89672233D02*
G75*
G02*
X79239998Y-89672233I499999J0D01*
G01*
X79240000Y-87172234D02*
G75*
G02*
X78240000Y-87172234I-500000J0D01*
G01*
X78240000Y-87172234D02*
G75*
G02*
X79240000Y-87172234I500000J0D01*
G01*
X79239999Y-92172232D02*
G75*
G02*
X78240001Y-92172232I-499999J0D01*
G01*
X78240001Y-92172232D02*
G75*
G02*
X79239999Y-92172232I499999J0D01*
G01*
X81739998Y-89672233D02*
G75*
G02*
X80740000Y-89672233I-499999J0D01*
G01*
X80740000Y-89672233D02*
G75*
G02*
X81739998Y-89672233I499999J0D01*
G01*
D11*
%TO.C,J3*%
X119776486Y-92636642D02*
X126570151Y-99430307D01*
X122468931Y-82601165D02*
X119776486Y-92636642D01*
X122468931Y-82601165D02*
X132509847Y-79914159D01*
X132509847Y-79914159D02*
X139298073Y-86702385D01*
X136611067Y-96743301D02*
X126570151Y-99430307D01*
X136611067Y-96743301D02*
X139298073Y-86702385D01*
D12*
X127540000Y-89672234D02*
G75*
G02*
X126540000Y-89672234I-500000J0D01*
G01*
X126540000Y-89672234D02*
G75*
G02*
X127540000Y-89672234I500000J0D01*
G01*
X130039998Y-89672233D02*
G75*
G02*
X129040000Y-89672233I-499999J0D01*
G01*
X129040000Y-89672233D02*
G75*
G02*
X130039998Y-89672233I499999J0D01*
G01*
X130040000Y-87172234D02*
G75*
G02*
X129040000Y-87172234I-500000J0D01*
G01*
X129040000Y-87172234D02*
G75*
G02*
X130040000Y-87172234I500000J0D01*
G01*
X130039999Y-92172232D02*
G75*
G02*
X129040001Y-92172232I-499999J0D01*
G01*
X129040001Y-92172232D02*
G75*
G02*
X130039999Y-92172232I499999J0D01*
G01*
X132539998Y-89672233D02*
G75*
G02*
X131540000Y-89672233I-499999J0D01*
G01*
X131540000Y-89672233D02*
G75*
G02*
X132539998Y-89672233I499999J0D01*
G01*
D11*
%TO.C,J2*%
X94376486Y-92636642D02*
X101170151Y-99430307D01*
X97068931Y-82601165D02*
X94376486Y-92636642D01*
X97068931Y-82601165D02*
X107109847Y-79914159D01*
X107109847Y-79914159D02*
X113898073Y-86702385D01*
X111211067Y-96743301D02*
X101170151Y-99430307D01*
X111211067Y-96743301D02*
X113898073Y-86702385D01*
D12*
X102140000Y-89672234D02*
G75*
G02*
X101140000Y-89672234I-500000J0D01*
G01*
X101140000Y-89672234D02*
G75*
G02*
X102140000Y-89672234I500000J0D01*
G01*
X104639998Y-89672233D02*
G75*
G02*
X103640000Y-89672233I-499999J0D01*
G01*
X103640000Y-89672233D02*
G75*
G02*
X104639998Y-89672233I499999J0D01*
G01*
X104640000Y-87172234D02*
G75*
G02*
X103640000Y-87172234I-500000J0D01*
G01*
X103640000Y-87172234D02*
G75*
G02*
X104640000Y-87172234I500000J0D01*
G01*
X104639999Y-92172232D02*
G75*
G02*
X103640001Y-92172232I-499999J0D01*
G01*
X103640001Y-92172232D02*
G75*
G02*
X104639999Y-92172232I499999J0D01*
G01*
X107139998Y-89672233D02*
G75*
G02*
X106140000Y-89672233I-499999J0D01*
G01*
X106140000Y-89672233D02*
G75*
G02*
X107139998Y-89672233I499999J0D01*
G01*
%TD*%
M02*
