%TF.GenerationSoftware,KiCad,Pcbnew,9.0.4*%
%TF.CreationDate,2026-05-11T20:20:50+08:00*%
%TF.ProjectId,TTR9-Can1 Signal Box,54545239-2d43-4616-9e31-205369676e61,v1.0*%
%TF.SameCoordinates,Original*%
%TF.FileFunction,Copper,L2,Bot*%
%TF.FilePolarity,Positive*%
%FSLAX46Y46*%
G04 Gerber Fmt 4.6, Leading zero omitted, Abs format (unit mm)*
G04 Created by KiCad (PCBNEW 9.0.4) date 2026-05-11 20:20:50*
%MOMM*%
%LPD*%
G01*
G04 APERTURE LIST*
G04 Aperture macros list*
%AMRotRect*
0 Rectangle, with rotation*
0 The origin of the aperture is its center*
0 $1 length*
0 $2 width*
0 $3 Rotation angle, in degrees counterclockwise*
0 Add horizontal line*
21,1,$1,$2,0,0,$3*%
G04 Aperture macros list end*
%TA.AperFunction,ComponentPad*%
%ADD10RotRect,1.500000X1.500000X45.000000*%
%TD*%
%TA.AperFunction,ComponentPad*%
%ADD11C,1.500000*%
%TD*%
%TA.AperFunction,ViaPad*%
%ADD12C,1.400000*%
%TD*%
G04 APERTURE END LIST*
D10*
%TO.P,J5,1,Pin_1*%
%TO.N,GND*%
X177840000Y-89672234D03*
D11*
%TO.P,J5,2,Pin_2*%
%TO.N,/CAN1.+*%
X180340000Y-87172234D03*
%TO.P,J5,3,Pin_3*%
%TO.N,GND*%
X182839999Y-89672233D03*
%TO.P,J5,4,Pin_4*%
%TO.N,/CAN1.-*%
X180340000Y-92172232D03*
%TO.P,J5,5,Pin_5*%
%TO.N,unconnected-(J5-Pin_5-Pad5)*%
X180339999Y-89672233D03*
%TD*%
D10*
%TO.P,J4,1,Pin_1*%
%TO.N,GND*%
X152440000Y-89672234D03*
D11*
%TO.P,J4,2,Pin_2*%
%TO.N,/CAN1.+*%
X154940000Y-87172234D03*
%TO.P,J4,3,Pin_3*%
%TO.N,GND*%
X157439999Y-89672233D03*
%TO.P,J4,4,Pin_4*%
%TO.N,/CAN1.-*%
X154940000Y-92172232D03*
%TO.P,J4,5,Pin_5*%
%TO.N,unconnected-(J4-Pin_5-Pad5)*%
X154939999Y-89672233D03*
%TD*%
D10*
%TO.P,J6,1,Pin_1*%
%TO.N,GND*%
X203240000Y-89672234D03*
D11*
%TO.P,J6,2,Pin_2*%
%TO.N,/CAN1.+*%
X205740000Y-87172234D03*
%TO.P,J6,3,Pin_3*%
%TO.N,GND*%
X208239999Y-89672233D03*
%TO.P,J6,4,Pin_4*%
%TO.N,/CAN1.-*%
X205740000Y-92172232D03*
%TO.P,J6,5,Pin_5*%
%TO.N,unconnected-(J6-Pin_5-Pad5)*%
X205739999Y-89672233D03*
%TD*%
D10*
%TO.P,J1,1,Pin_1*%
%TO.N,GND*%
X76240000Y-89672234D03*
D11*
%TO.P,J1,2,Pin_2*%
%TO.N,/CAN1.+*%
X78740000Y-87172234D03*
%TO.P,J1,3,Pin_3*%
%TO.N,GND*%
X81239999Y-89672233D03*
%TO.P,J1,4,Pin_4*%
%TO.N,/CAN1.-*%
X78740000Y-92172232D03*
%TO.P,J1,5,Pin_5*%
%TO.N,unconnected-(J1-Pin_5-Pad5)*%
X78739999Y-89672233D03*
%TD*%
D10*
%TO.P,J3,1,Pin_1*%
%TO.N,GND*%
X127040000Y-89672234D03*
D11*
%TO.P,J3,2,Pin_2*%
%TO.N,/CAN1.+*%
X129540000Y-87172234D03*
%TO.P,J3,3,Pin_3*%
%TO.N,GND*%
X132039999Y-89672233D03*
%TO.P,J3,4,Pin_4*%
%TO.N,/CAN1.-*%
X129540000Y-92172232D03*
%TO.P,J3,5,Pin_5*%
%TO.N,unconnected-(J3-Pin_5-Pad5)*%
X129539999Y-89672233D03*
%TD*%
D10*
%TO.P,J2,1,Pin_1*%
%TO.N,GND*%
X101640000Y-89672234D03*
D11*
%TO.P,J2,2,Pin_2*%
%TO.N,/CAN1.+*%
X104140000Y-87172234D03*
%TO.P,J2,3,Pin_3*%
%TO.N,GND*%
X106639999Y-89672233D03*
%TO.P,J2,4,Pin_4*%
%TO.N,/CAN1.-*%
X104140000Y-92172232D03*
%TO.P,J2,5,Pin_5*%
%TO.N,unconnected-(J2-Pin_5-Pad5)*%
X104139999Y-89672233D03*
%TD*%
D12*
%TO.N,GND*%
X65960000Y-93980000D03*
X65960000Y-86360000D03*
X65960000Y-96520000D03*
X65960000Y-88900000D03*
X65960000Y-91440000D03*
X65960000Y-83820000D03*
X83820000Y-102870000D03*
X109220000Y-102870000D03*
X78740000Y-102870000D03*
X104140000Y-102870000D03*
X99060000Y-102870000D03*
X93980000Y-102870000D03*
X88900000Y-102870000D03*
X73660000Y-102870000D03*
X114300000Y-102870000D03*
X210820000Y-102870000D03*
X190500000Y-102870000D03*
X195580000Y-102870000D03*
X215900000Y-102870000D03*
X175260000Y-102870000D03*
X200660000Y-102870000D03*
X180340000Y-102870000D03*
X205740000Y-102870000D03*
X139700000Y-102870000D03*
X134620000Y-102870000D03*
X119380000Y-102870000D03*
X124460000Y-102870000D03*
X170180000Y-102870000D03*
X160020000Y-102870000D03*
X154940000Y-102870000D03*
X144780000Y-102870000D03*
X129540000Y-102870000D03*
X149860000Y-102870000D03*
X185420000Y-102870000D03*
X165100000Y-102870000D03*
X220980000Y-93980000D03*
X220980000Y-86360000D03*
X220980000Y-96520000D03*
X220980000Y-91440000D03*
X220980000Y-88900000D03*
X220980000Y-83820000D03*
X215900000Y-78740000D03*
X210820000Y-78740000D03*
X175260000Y-78740000D03*
X200660000Y-78740000D03*
X170180000Y-78740000D03*
X195580000Y-78740000D03*
X190500000Y-78740000D03*
X185420000Y-78740000D03*
X180340000Y-78740000D03*
X165100000Y-78740000D03*
X205740000Y-78740000D03*
X129540000Y-78740000D03*
X154940000Y-78740000D03*
X124460000Y-78740000D03*
X149860000Y-78740000D03*
X144780000Y-78740000D03*
X139700000Y-78740000D03*
X134620000Y-78740000D03*
X119380000Y-78740000D03*
X160020000Y-78740000D03*
X114300000Y-78740000D03*
X109220000Y-78740000D03*
X104140000Y-78740000D03*
X99060000Y-78740000D03*
X93980000Y-78740000D03*
X88900000Y-78740000D03*
X83820000Y-78740000D03*
X78740000Y-78740000D03*
X73660000Y-78740000D03*
%TD*%
%TA.AperFunction,Conductor*%
%TO.N,GND*%
G36*
X221062702Y-73914617D02*
G01*
X221468212Y-73932322D01*
X221478947Y-73933262D01*
X221878688Y-73985889D01*
X221889315Y-73987762D01*
X222282958Y-74075031D01*
X222293370Y-74077820D01*
X222677911Y-74199066D01*
X222688046Y-74202755D01*
X223060542Y-74357048D01*
X223070334Y-74361614D01*
X223427965Y-74547785D01*
X223437305Y-74553178D01*
X223584493Y-74646947D01*
X223777336Y-74769802D01*
X223786197Y-74776006D01*
X224106056Y-75021442D01*
X224114343Y-75028396D01*
X224411583Y-75300767D01*
X224419232Y-75308416D01*
X224691603Y-75605656D01*
X224698557Y-75613943D01*
X224943993Y-75933802D01*
X224950197Y-75942663D01*
X225166813Y-76282680D01*
X225172218Y-76292042D01*
X225291181Y-76520566D01*
X225358382Y-76649659D01*
X225362954Y-76659463D01*
X225517238Y-77031938D01*
X225520937Y-77042101D01*
X225561363Y-77170316D01*
X225642173Y-77426610D01*
X225644973Y-77437060D01*
X225732234Y-77830672D01*
X225734112Y-77841325D01*
X225786735Y-78241032D01*
X225787678Y-78251808D01*
X225805382Y-78657297D01*
X225805500Y-78662706D01*
X225805500Y-101677293D01*
X225805382Y-101682702D01*
X225787678Y-102088191D01*
X225786735Y-102098967D01*
X225734112Y-102498674D01*
X225732234Y-102509327D01*
X225644973Y-102902939D01*
X225642173Y-102913389D01*
X225520938Y-103297896D01*
X225517238Y-103308061D01*
X225362954Y-103680536D01*
X225358382Y-103690340D01*
X225172222Y-104047951D01*
X225166813Y-104057319D01*
X224950197Y-104397336D01*
X224943993Y-104406197D01*
X224698557Y-104726056D01*
X224691603Y-104734343D01*
X224419232Y-105031583D01*
X224411583Y-105039232D01*
X224114343Y-105311603D01*
X224106056Y-105318557D01*
X223786197Y-105563993D01*
X223777336Y-105570197D01*
X223437319Y-105786813D01*
X223427951Y-105792222D01*
X223070340Y-105978382D01*
X223060536Y-105982954D01*
X222688061Y-106137238D01*
X222677896Y-106140938D01*
X222293389Y-106262173D01*
X222282939Y-106264973D01*
X221889327Y-106352234D01*
X221878674Y-106354112D01*
X221478967Y-106406735D01*
X221468191Y-106407678D01*
X221062703Y-106425382D01*
X221057294Y-106425500D01*
X65962706Y-106425500D01*
X65957297Y-106425382D01*
X65551808Y-106407678D01*
X65541032Y-106406735D01*
X65141325Y-106354112D01*
X65130672Y-106352234D01*
X64874740Y-106295495D01*
X64737057Y-106264972D01*
X64726614Y-106262174D01*
X64342101Y-106140937D01*
X64331938Y-106137238D01*
X63959463Y-105982954D01*
X63949659Y-105978382D01*
X63832813Y-105917556D01*
X63592042Y-105792218D01*
X63582686Y-105786817D01*
X63412671Y-105678505D01*
X63242663Y-105570197D01*
X63233802Y-105563993D01*
X62913943Y-105318557D01*
X62905656Y-105311603D01*
X62608416Y-105039232D01*
X62600767Y-105031583D01*
X62328396Y-104734343D01*
X62321442Y-104726056D01*
X62076006Y-104406197D01*
X62069802Y-104397336D01*
X62053660Y-104371999D01*
X61853178Y-104057305D01*
X61847785Y-104047965D01*
X61661614Y-103690334D01*
X61657045Y-103680536D01*
X61502755Y-103308046D01*
X61499066Y-103297911D01*
X61377820Y-102913370D01*
X61375031Y-102902958D01*
X61287762Y-102509315D01*
X61285889Y-102498688D01*
X61233262Y-102098947D01*
X61232322Y-102088210D01*
X61214618Y-101682701D01*
X61214500Y-101677293D01*
X61214500Y-101532224D01*
X63705500Y-101532224D01*
X63705500Y-101827775D01*
X63735503Y-102055662D01*
X63744076Y-102120775D01*
X63782321Y-102263507D01*
X63820566Y-102406242D01*
X63933660Y-102679275D01*
X63933665Y-102679286D01*
X64081425Y-102935212D01*
X64081436Y-102935228D01*
X64261339Y-103169682D01*
X64261345Y-103169689D01*
X64470310Y-103378654D01*
X64470316Y-103378659D01*
X64704780Y-103558570D01*
X64704787Y-103558574D01*
X64960713Y-103706334D01*
X64960718Y-103706336D01*
X64960721Y-103706338D01*
X65097240Y-103762886D01*
X65233757Y-103819433D01*
X65233758Y-103819433D01*
X65233760Y-103819434D01*
X65519225Y-103895924D01*
X65812232Y-103934500D01*
X65812239Y-103934500D01*
X66107761Y-103934500D01*
X66107768Y-103934500D01*
X66400775Y-103895924D01*
X66686240Y-103819434D01*
X66959279Y-103706338D01*
X67215220Y-103558570D01*
X67449684Y-103378659D01*
X67658659Y-103169684D01*
X67838570Y-102935220D01*
X67986338Y-102679279D01*
X68099434Y-102406240D01*
X68175924Y-102120775D01*
X68214500Y-101827768D01*
X68214500Y-101532232D01*
X68214499Y-101532224D01*
X218805500Y-101532224D01*
X218805500Y-101827775D01*
X218835503Y-102055662D01*
X218844076Y-102120775D01*
X218882321Y-102263507D01*
X218920566Y-102406242D01*
X219033660Y-102679275D01*
X219033665Y-102679286D01*
X219181425Y-102935212D01*
X219181436Y-102935228D01*
X219361339Y-103169682D01*
X219361345Y-103169689D01*
X219570310Y-103378654D01*
X219570316Y-103378659D01*
X219804780Y-103558570D01*
X219804787Y-103558574D01*
X220060713Y-103706334D01*
X220060718Y-103706336D01*
X220060721Y-103706338D01*
X220197240Y-103762886D01*
X220333757Y-103819433D01*
X220333758Y-103819433D01*
X220333760Y-103819434D01*
X220619225Y-103895924D01*
X220912232Y-103934500D01*
X220912239Y-103934500D01*
X221207761Y-103934500D01*
X221207768Y-103934500D01*
X221500775Y-103895924D01*
X221786240Y-103819434D01*
X222059279Y-103706338D01*
X222315220Y-103558570D01*
X222549684Y-103378659D01*
X222758659Y-103169684D01*
X222938570Y-102935220D01*
X223086338Y-102679279D01*
X223199434Y-102406240D01*
X223275924Y-102120775D01*
X223314500Y-101827768D01*
X223314500Y-101532232D01*
X223275924Y-101239225D01*
X223199434Y-100953760D01*
X223086338Y-100680721D01*
X223086336Y-100680718D01*
X223086334Y-100680713D01*
X222938574Y-100424787D01*
X222938570Y-100424780D01*
X222758659Y-100190316D01*
X222758654Y-100190310D01*
X222549689Y-99981345D01*
X222549682Y-99981339D01*
X222315228Y-99801436D01*
X222315226Y-99801434D01*
X222315220Y-99801430D01*
X222315215Y-99801427D01*
X222315212Y-99801425D01*
X222059286Y-99653665D01*
X222059275Y-99653660D01*
X221786242Y-99540566D01*
X221643507Y-99502321D01*
X221500775Y-99464076D01*
X221435662Y-99455503D01*
X221207775Y-99425500D01*
X221207768Y-99425500D01*
X220912232Y-99425500D01*
X220912224Y-99425500D01*
X220651781Y-99459789D01*
X220619225Y-99464076D01*
X220547858Y-99483198D01*
X220333757Y-99540566D01*
X220060724Y-99653660D01*
X220060713Y-99653665D01*
X219804787Y-99801425D01*
X219804771Y-99801436D01*
X219570317Y-99981339D01*
X219570310Y-99981345D01*
X219361345Y-100190310D01*
X219361339Y-100190317D01*
X219181436Y-100424771D01*
X219181425Y-100424787D01*
X219033665Y-100680713D01*
X219033660Y-100680724D01*
X218920566Y-100953757D01*
X218844076Y-101239226D01*
X218805500Y-101532224D01*
X68214499Y-101532224D01*
X68175924Y-101239225D01*
X68099434Y-100953760D01*
X67986338Y-100680721D01*
X67986336Y-100680718D01*
X67986334Y-100680713D01*
X67838574Y-100424787D01*
X67838570Y-100424780D01*
X67658659Y-100190316D01*
X67658654Y-100190310D01*
X67449689Y-99981345D01*
X67449682Y-99981339D01*
X67215228Y-99801436D01*
X67215226Y-99801434D01*
X67215220Y-99801430D01*
X67215215Y-99801427D01*
X67215212Y-99801425D01*
X66959286Y-99653665D01*
X66959275Y-99653660D01*
X66686242Y-99540566D01*
X66543507Y-99502321D01*
X66400775Y-99464076D01*
X66335662Y-99455503D01*
X66107775Y-99425500D01*
X66107768Y-99425500D01*
X65812232Y-99425500D01*
X65812224Y-99425500D01*
X65551781Y-99459789D01*
X65519225Y-99464076D01*
X65447858Y-99483198D01*
X65233757Y-99540566D01*
X64960724Y-99653660D01*
X64960713Y-99653665D01*
X64704787Y-99801425D01*
X64704771Y-99801436D01*
X64470317Y-99981339D01*
X64470310Y-99981345D01*
X64261345Y-100190310D01*
X64261339Y-100190317D01*
X64081436Y-100424771D01*
X64081425Y-100424787D01*
X63933665Y-100680713D01*
X63933660Y-100680724D01*
X63820566Y-100953757D01*
X63744076Y-101239226D01*
X63705500Y-101532224D01*
X61214500Y-101532224D01*
X61214500Y-89573810D01*
X77489499Y-89573810D01*
X77489499Y-89770655D01*
X77520289Y-89965059D01*
X77581116Y-90152262D01*
X77670475Y-90327638D01*
X77786171Y-90486879D01*
X77925353Y-90626061D01*
X78044783Y-90712833D01*
X78084595Y-90741758D01*
X78221958Y-90811747D01*
X78272755Y-90859721D01*
X78289550Y-90927542D01*
X78267013Y-90993677D01*
X78221959Y-91032717D01*
X78084594Y-91102708D01*
X77993741Y-91168717D01*
X77925354Y-91218404D01*
X77925352Y-91218406D01*
X77925351Y-91218406D01*
X77786174Y-91357583D01*
X77786174Y-91357584D01*
X77786172Y-91357586D01*
X77736485Y-91425973D01*
X77670476Y-91516826D01*
X77581117Y-91692202D01*
X77520290Y-91879405D01*
X77489500Y-92073809D01*
X77489500Y-92270654D01*
X77520290Y-92465058D01*
X77581117Y-92652261D01*
X77670476Y-92827637D01*
X77786172Y-92986878D01*
X77925354Y-93126060D01*
X78084595Y-93241756D01*
X78167455Y-93283975D01*
X78259970Y-93331114D01*
X78259972Y-93331114D01*
X78259975Y-93331116D01*
X78360317Y-93363719D01*
X78447173Y-93391941D01*
X78641578Y-93422732D01*
X78641583Y-93422732D01*
X78838422Y-93422732D01*
X79032826Y-93391941D01*
X79220025Y-93331116D01*
X79395405Y-93241756D01*
X79554646Y-93126060D01*
X79693828Y-92986878D01*
X79809524Y-92827637D01*
X79898884Y-92652257D01*
X79959709Y-92465058D01*
X79990500Y-92270654D01*
X79990500Y-92073809D01*
X79959709Y-91879405D01*
X79898882Y-91692202D01*
X79809523Y-91516826D01*
X79693828Y-91357586D01*
X79554646Y-91218404D01*
X79395405Y-91102708D01*
X79258038Y-91032716D01*
X79207243Y-90984743D01*
X79190448Y-90916922D01*
X79212985Y-90850787D01*
X79258040Y-90811747D01*
X79395402Y-90741758D01*
X79395401Y-90741758D01*
X79395404Y-90741757D01*
X79554645Y-90626061D01*
X79693827Y-90486879D01*
X79809523Y-90327638D01*
X79898883Y-90152258D01*
X79959708Y-89965059D01*
X79990499Y-89770655D01*
X79990499Y-89573810D01*
X102889499Y-89573810D01*
X102889499Y-89770655D01*
X102920289Y-89965059D01*
X102981116Y-90152262D01*
X103070475Y-90327638D01*
X103186171Y-90486879D01*
X103325353Y-90626061D01*
X103444783Y-90712833D01*
X103484595Y-90741758D01*
X103621958Y-90811747D01*
X103672755Y-90859721D01*
X103689550Y-90927542D01*
X103667013Y-90993677D01*
X103621959Y-91032717D01*
X103484594Y-91102708D01*
X103393741Y-91168717D01*
X103325354Y-91218404D01*
X103325352Y-91218406D01*
X103325351Y-91218406D01*
X103186174Y-91357583D01*
X103186174Y-91357584D01*
X103186172Y-91357586D01*
X103136485Y-91425973D01*
X103070476Y-91516826D01*
X102981117Y-91692202D01*
X102920290Y-91879405D01*
X102889500Y-92073809D01*
X102889500Y-92270654D01*
X102920290Y-92465058D01*
X102981117Y-92652261D01*
X103070476Y-92827637D01*
X103186172Y-92986878D01*
X103325354Y-93126060D01*
X103484595Y-93241756D01*
X103567455Y-93283975D01*
X103659970Y-93331114D01*
X103659972Y-93331114D01*
X103659975Y-93331116D01*
X103760317Y-93363719D01*
X103847173Y-93391941D01*
X104041578Y-93422732D01*
X104041583Y-93422732D01*
X104238422Y-93422732D01*
X104432826Y-93391941D01*
X104620025Y-93331116D01*
X104795405Y-93241756D01*
X104954646Y-93126060D01*
X105093828Y-92986878D01*
X105209524Y-92827637D01*
X105298884Y-92652257D01*
X105359709Y-92465058D01*
X105390500Y-92270654D01*
X105390500Y-92073809D01*
X105359709Y-91879405D01*
X105298882Y-91692202D01*
X105209523Y-91516826D01*
X105093828Y-91357586D01*
X104954646Y-91218404D01*
X104795405Y-91102708D01*
X104658038Y-91032716D01*
X104607243Y-90984743D01*
X104590448Y-90916922D01*
X104612985Y-90850787D01*
X104658040Y-90811747D01*
X104795402Y-90741758D01*
X104795401Y-90741758D01*
X104795404Y-90741757D01*
X104954645Y-90626061D01*
X105093827Y-90486879D01*
X105209523Y-90327638D01*
X105298883Y-90152258D01*
X105359708Y-89965059D01*
X105390499Y-89770655D01*
X105390499Y-89573810D01*
X128289499Y-89573810D01*
X128289499Y-89770655D01*
X128320289Y-89965059D01*
X128381116Y-90152262D01*
X128470475Y-90327638D01*
X128586171Y-90486879D01*
X128725353Y-90626061D01*
X128844783Y-90712833D01*
X128884595Y-90741758D01*
X129021958Y-90811747D01*
X129072755Y-90859721D01*
X129089550Y-90927542D01*
X129067013Y-90993677D01*
X129021959Y-91032717D01*
X128884594Y-91102708D01*
X128793741Y-91168717D01*
X128725354Y-91218404D01*
X128725352Y-91218406D01*
X128725351Y-91218406D01*
X128586174Y-91357583D01*
X128586174Y-91357584D01*
X128586172Y-91357586D01*
X128536485Y-91425973D01*
X128470476Y-91516826D01*
X128381117Y-91692202D01*
X128320290Y-91879405D01*
X128289500Y-92073809D01*
X128289500Y-92270654D01*
X128320290Y-92465058D01*
X128381117Y-92652261D01*
X128470476Y-92827637D01*
X128586172Y-92986878D01*
X128725354Y-93126060D01*
X128884595Y-93241756D01*
X128967455Y-93283975D01*
X129059970Y-93331114D01*
X129059972Y-93331114D01*
X129059975Y-93331116D01*
X129160317Y-93363719D01*
X129247173Y-93391941D01*
X129441578Y-93422732D01*
X129441583Y-93422732D01*
X129638422Y-93422732D01*
X129832826Y-93391941D01*
X130020025Y-93331116D01*
X130195405Y-93241756D01*
X130354646Y-93126060D01*
X130493828Y-92986878D01*
X130609524Y-92827637D01*
X130698884Y-92652257D01*
X130759709Y-92465058D01*
X130790500Y-92270654D01*
X130790500Y-92073809D01*
X130759709Y-91879405D01*
X130698882Y-91692202D01*
X130609523Y-91516826D01*
X130493828Y-91357586D01*
X130354646Y-91218404D01*
X130195405Y-91102708D01*
X130058038Y-91032716D01*
X130007243Y-90984743D01*
X129990448Y-90916922D01*
X130012985Y-90850787D01*
X130058040Y-90811747D01*
X130195402Y-90741758D01*
X130195401Y-90741758D01*
X130195404Y-90741757D01*
X130354645Y-90626061D01*
X130493827Y-90486879D01*
X130609523Y-90327638D01*
X130698883Y-90152258D01*
X130759708Y-89965059D01*
X130790499Y-89770655D01*
X130790499Y-89573810D01*
X153689499Y-89573810D01*
X153689499Y-89770655D01*
X153720289Y-89965059D01*
X153781116Y-90152262D01*
X153870475Y-90327638D01*
X153986171Y-90486879D01*
X154125353Y-90626061D01*
X154244783Y-90712833D01*
X154284595Y-90741758D01*
X154421958Y-90811747D01*
X154472755Y-90859721D01*
X154489550Y-90927542D01*
X154467013Y-90993677D01*
X154421959Y-91032717D01*
X154284594Y-91102708D01*
X154193741Y-91168717D01*
X154125354Y-91218404D01*
X154125352Y-91218406D01*
X154125351Y-91218406D01*
X153986174Y-91357583D01*
X153986174Y-91357584D01*
X153986172Y-91357586D01*
X153936485Y-91425973D01*
X153870476Y-91516826D01*
X153781117Y-91692202D01*
X153720290Y-91879405D01*
X153689500Y-92073809D01*
X153689500Y-92270654D01*
X153720290Y-92465058D01*
X153781117Y-92652261D01*
X153870476Y-92827637D01*
X153986172Y-92986878D01*
X154125354Y-93126060D01*
X154284595Y-93241756D01*
X154367455Y-93283975D01*
X154459970Y-93331114D01*
X154459972Y-93331114D01*
X154459975Y-93331116D01*
X154560317Y-93363719D01*
X154647173Y-93391941D01*
X154841578Y-93422732D01*
X154841583Y-93422732D01*
X155038422Y-93422732D01*
X155232826Y-93391941D01*
X155420025Y-93331116D01*
X155595405Y-93241756D01*
X155754646Y-93126060D01*
X155893828Y-92986878D01*
X156009524Y-92827637D01*
X156098884Y-92652257D01*
X156159709Y-92465058D01*
X156190500Y-92270654D01*
X156190500Y-92073809D01*
X156159709Y-91879405D01*
X156098882Y-91692202D01*
X156009523Y-91516826D01*
X155893828Y-91357586D01*
X155754646Y-91218404D01*
X155595405Y-91102708D01*
X155458038Y-91032716D01*
X155407243Y-90984743D01*
X155390448Y-90916922D01*
X155412985Y-90850787D01*
X155458040Y-90811747D01*
X155595402Y-90741758D01*
X155595401Y-90741758D01*
X155595404Y-90741757D01*
X155754645Y-90626061D01*
X155893827Y-90486879D01*
X156009523Y-90327638D01*
X156098883Y-90152258D01*
X156159708Y-89965059D01*
X156190499Y-89770655D01*
X156190499Y-89573810D01*
X179089499Y-89573810D01*
X179089499Y-89770655D01*
X179120289Y-89965059D01*
X179181116Y-90152262D01*
X179270475Y-90327638D01*
X179386171Y-90486879D01*
X179525353Y-90626061D01*
X179644783Y-90712833D01*
X179684595Y-90741758D01*
X179821958Y-90811747D01*
X179872755Y-90859721D01*
X179889550Y-90927542D01*
X179867013Y-90993677D01*
X179821959Y-91032717D01*
X179684594Y-91102708D01*
X179593741Y-91168717D01*
X179525354Y-91218404D01*
X179525352Y-91218406D01*
X179525351Y-91218406D01*
X179386174Y-91357583D01*
X179386174Y-91357584D01*
X179386172Y-91357586D01*
X179336485Y-91425973D01*
X179270476Y-91516826D01*
X179181117Y-91692202D01*
X179120290Y-91879405D01*
X179089500Y-92073809D01*
X179089500Y-92270654D01*
X179120290Y-92465058D01*
X179181117Y-92652261D01*
X179270476Y-92827637D01*
X179386172Y-92986878D01*
X179525354Y-93126060D01*
X179684595Y-93241756D01*
X179767455Y-93283975D01*
X179859970Y-93331114D01*
X179859972Y-93331114D01*
X179859975Y-93331116D01*
X179960317Y-93363719D01*
X180047173Y-93391941D01*
X180241578Y-93422732D01*
X180241583Y-93422732D01*
X180438422Y-93422732D01*
X180632826Y-93391941D01*
X180820025Y-93331116D01*
X180995405Y-93241756D01*
X181154646Y-93126060D01*
X181293828Y-92986878D01*
X181409524Y-92827637D01*
X181498884Y-92652257D01*
X181559709Y-92465058D01*
X181590500Y-92270654D01*
X181590500Y-92073809D01*
X181559709Y-91879405D01*
X181498882Y-91692202D01*
X181409523Y-91516826D01*
X181293828Y-91357586D01*
X181154646Y-91218404D01*
X180995405Y-91102708D01*
X180858038Y-91032716D01*
X180807243Y-90984743D01*
X180790448Y-90916922D01*
X180812985Y-90850787D01*
X180858040Y-90811747D01*
X180995402Y-90741758D01*
X180995401Y-90741758D01*
X180995404Y-90741757D01*
X181154645Y-90626061D01*
X181293827Y-90486879D01*
X181409523Y-90327638D01*
X181498883Y-90152258D01*
X181559708Y-89965059D01*
X181590499Y-89770655D01*
X181590499Y-89573810D01*
X204489499Y-89573810D01*
X204489499Y-89770655D01*
X204520289Y-89965059D01*
X204581116Y-90152262D01*
X204670475Y-90327638D01*
X204786171Y-90486879D01*
X204925353Y-90626061D01*
X205044783Y-90712833D01*
X205084595Y-90741758D01*
X205221958Y-90811747D01*
X205272755Y-90859721D01*
X205289550Y-90927542D01*
X205267013Y-90993677D01*
X205221959Y-91032717D01*
X205084594Y-91102708D01*
X204993741Y-91168717D01*
X204925354Y-91218404D01*
X204925352Y-91218406D01*
X204925351Y-91218406D01*
X204786174Y-91357583D01*
X204786174Y-91357584D01*
X204786172Y-91357586D01*
X204736485Y-91425973D01*
X204670476Y-91516826D01*
X204581117Y-91692202D01*
X204520290Y-91879405D01*
X204489500Y-92073809D01*
X204489500Y-92270654D01*
X204520290Y-92465058D01*
X204581117Y-92652261D01*
X204670476Y-92827637D01*
X204786172Y-92986878D01*
X204925354Y-93126060D01*
X205084595Y-93241756D01*
X205167455Y-93283975D01*
X205259970Y-93331114D01*
X205259972Y-93331114D01*
X205259975Y-93331116D01*
X205360317Y-93363719D01*
X205447173Y-93391941D01*
X205641578Y-93422732D01*
X205641583Y-93422732D01*
X205838422Y-93422732D01*
X206032826Y-93391941D01*
X206220025Y-93331116D01*
X206395405Y-93241756D01*
X206554646Y-93126060D01*
X206693828Y-92986878D01*
X206809524Y-92827637D01*
X206898884Y-92652257D01*
X206959709Y-92465058D01*
X206990500Y-92270654D01*
X206990500Y-92073809D01*
X206959709Y-91879405D01*
X206898882Y-91692202D01*
X206809523Y-91516826D01*
X206693828Y-91357586D01*
X206554646Y-91218404D01*
X206395405Y-91102708D01*
X206258038Y-91032716D01*
X206207243Y-90984743D01*
X206190448Y-90916922D01*
X206212985Y-90850787D01*
X206258040Y-90811747D01*
X206395402Y-90741758D01*
X206395401Y-90741758D01*
X206395404Y-90741757D01*
X206554645Y-90626061D01*
X206693827Y-90486879D01*
X206809523Y-90327638D01*
X206898883Y-90152258D01*
X206959708Y-89965059D01*
X206990499Y-89770655D01*
X206990499Y-89573810D01*
X206959708Y-89379406D01*
X206898881Y-89192203D01*
X206809522Y-89016827D01*
X206693827Y-88857587D01*
X206554645Y-88718405D01*
X206395404Y-88602709D01*
X206258039Y-88532718D01*
X206207243Y-88484743D01*
X206190448Y-88416922D01*
X206212985Y-88350787D01*
X206258038Y-88311749D01*
X206395405Y-88241758D01*
X206554646Y-88126062D01*
X206693828Y-87986880D01*
X206809524Y-87827639D01*
X206898884Y-87652259D01*
X206959709Y-87465060D01*
X206990500Y-87270656D01*
X206990500Y-87073811D01*
X206959709Y-86879407D01*
X206898882Y-86692204D01*
X206809523Y-86516828D01*
X206693828Y-86357588D01*
X206554646Y-86218406D01*
X206395405Y-86102710D01*
X206220029Y-86013351D01*
X206032826Y-85952524D01*
X205838422Y-85921734D01*
X205838417Y-85921734D01*
X205641583Y-85921734D01*
X205641578Y-85921734D01*
X205447173Y-85952524D01*
X205259970Y-86013351D01*
X205084594Y-86102710D01*
X204993741Y-86168719D01*
X204925354Y-86218406D01*
X204925352Y-86218408D01*
X204925351Y-86218408D01*
X204786174Y-86357585D01*
X204786174Y-86357586D01*
X204786172Y-86357588D01*
X204736485Y-86425975D01*
X204670476Y-86516828D01*
X204581117Y-86692204D01*
X204520290Y-86879407D01*
X204489500Y-87073811D01*
X204489500Y-87270656D01*
X204520290Y-87465060D01*
X204581117Y-87652263D01*
X204670476Y-87827639D01*
X204786172Y-87986880D01*
X204925354Y-88126062D01*
X205084595Y-88241758D01*
X205221959Y-88311748D01*
X205272755Y-88359722D01*
X205289550Y-88427543D01*
X205267013Y-88493678D01*
X205221959Y-88532718D01*
X205084593Y-88602709D01*
X204993740Y-88668718D01*
X204925353Y-88718405D01*
X204925351Y-88718407D01*
X204925350Y-88718407D01*
X204786173Y-88857584D01*
X204786173Y-88857585D01*
X204786171Y-88857587D01*
X204736484Y-88925974D01*
X204670475Y-89016827D01*
X204581116Y-89192203D01*
X204520289Y-89379406D01*
X204489499Y-89573810D01*
X181590499Y-89573810D01*
X181559708Y-89379406D01*
X181498881Y-89192203D01*
X181409522Y-89016827D01*
X181293827Y-88857587D01*
X181154645Y-88718405D01*
X180995404Y-88602709D01*
X180858039Y-88532718D01*
X180807243Y-88484743D01*
X180790448Y-88416922D01*
X180812985Y-88350787D01*
X180858038Y-88311749D01*
X180995405Y-88241758D01*
X181154646Y-88126062D01*
X181293828Y-87986880D01*
X181409524Y-87827639D01*
X181498884Y-87652259D01*
X181559709Y-87465060D01*
X181590500Y-87270656D01*
X181590500Y-87073811D01*
X181559709Y-86879407D01*
X181498882Y-86692204D01*
X181409523Y-86516828D01*
X181293828Y-86357588D01*
X181154646Y-86218406D01*
X180995405Y-86102710D01*
X180820029Y-86013351D01*
X180632826Y-85952524D01*
X180438422Y-85921734D01*
X180438417Y-85921734D01*
X180241583Y-85921734D01*
X180241578Y-85921734D01*
X180047173Y-85952524D01*
X179859970Y-86013351D01*
X179684594Y-86102710D01*
X179593741Y-86168719D01*
X179525354Y-86218406D01*
X179525352Y-86218408D01*
X179525351Y-86218408D01*
X179386174Y-86357585D01*
X179386174Y-86357586D01*
X179386172Y-86357588D01*
X179336485Y-86425975D01*
X179270476Y-86516828D01*
X179181117Y-86692204D01*
X179120290Y-86879407D01*
X179089500Y-87073811D01*
X179089500Y-87270656D01*
X179120290Y-87465060D01*
X179181117Y-87652263D01*
X179270476Y-87827639D01*
X179386172Y-87986880D01*
X179525354Y-88126062D01*
X179684595Y-88241758D01*
X179821959Y-88311748D01*
X179872755Y-88359722D01*
X179889550Y-88427543D01*
X179867013Y-88493678D01*
X179821959Y-88532718D01*
X179684593Y-88602709D01*
X179593740Y-88668718D01*
X179525353Y-88718405D01*
X179525351Y-88718407D01*
X179525350Y-88718407D01*
X179386173Y-88857584D01*
X179386173Y-88857585D01*
X179386171Y-88857587D01*
X179336484Y-88925974D01*
X179270475Y-89016827D01*
X179181116Y-89192203D01*
X179120289Y-89379406D01*
X179089499Y-89573810D01*
X156190499Y-89573810D01*
X156159708Y-89379406D01*
X156098881Y-89192203D01*
X156009522Y-89016827D01*
X155893827Y-88857587D01*
X155754645Y-88718405D01*
X155595404Y-88602709D01*
X155458039Y-88532718D01*
X155407243Y-88484743D01*
X155390448Y-88416922D01*
X155412985Y-88350787D01*
X155458038Y-88311749D01*
X155595405Y-88241758D01*
X155754646Y-88126062D01*
X155893828Y-87986880D01*
X156009524Y-87827639D01*
X156098884Y-87652259D01*
X156159709Y-87465060D01*
X156190500Y-87270656D01*
X156190500Y-87073811D01*
X156159709Y-86879407D01*
X156098882Y-86692204D01*
X156009523Y-86516828D01*
X155893828Y-86357588D01*
X155754646Y-86218406D01*
X155595405Y-86102710D01*
X155420029Y-86013351D01*
X155232826Y-85952524D01*
X155038422Y-85921734D01*
X155038417Y-85921734D01*
X154841583Y-85921734D01*
X154841578Y-85921734D01*
X154647173Y-85952524D01*
X154459970Y-86013351D01*
X154284594Y-86102710D01*
X154193741Y-86168719D01*
X154125354Y-86218406D01*
X154125352Y-86218408D01*
X154125351Y-86218408D01*
X153986174Y-86357585D01*
X153986174Y-86357586D01*
X153986172Y-86357588D01*
X153936485Y-86425975D01*
X153870476Y-86516828D01*
X153781117Y-86692204D01*
X153720290Y-86879407D01*
X153689500Y-87073811D01*
X153689500Y-87270656D01*
X153720290Y-87465060D01*
X153781117Y-87652263D01*
X153870476Y-87827639D01*
X153986172Y-87986880D01*
X154125354Y-88126062D01*
X154284595Y-88241758D01*
X154421959Y-88311748D01*
X154472755Y-88359722D01*
X154489550Y-88427543D01*
X154467013Y-88493678D01*
X154421959Y-88532718D01*
X154284593Y-88602709D01*
X154193740Y-88668718D01*
X154125353Y-88718405D01*
X154125351Y-88718407D01*
X154125350Y-88718407D01*
X153986173Y-88857584D01*
X153986173Y-88857585D01*
X153986171Y-88857587D01*
X153936484Y-88925974D01*
X153870475Y-89016827D01*
X153781116Y-89192203D01*
X153720289Y-89379406D01*
X153689499Y-89573810D01*
X130790499Y-89573810D01*
X130759708Y-89379406D01*
X130698881Y-89192203D01*
X130609522Y-89016827D01*
X130493827Y-88857587D01*
X130354645Y-88718405D01*
X130195404Y-88602709D01*
X130058039Y-88532718D01*
X130007243Y-88484743D01*
X129990448Y-88416922D01*
X130012985Y-88350787D01*
X130058038Y-88311749D01*
X130195405Y-88241758D01*
X130354646Y-88126062D01*
X130493828Y-87986880D01*
X130609524Y-87827639D01*
X130698884Y-87652259D01*
X130759709Y-87465060D01*
X130790500Y-87270656D01*
X130790500Y-87073811D01*
X130759709Y-86879407D01*
X130698882Y-86692204D01*
X130609523Y-86516828D01*
X130493828Y-86357588D01*
X130354646Y-86218406D01*
X130195405Y-86102710D01*
X130020029Y-86013351D01*
X129832826Y-85952524D01*
X129638422Y-85921734D01*
X129638417Y-85921734D01*
X129441583Y-85921734D01*
X129441578Y-85921734D01*
X129247173Y-85952524D01*
X129059970Y-86013351D01*
X128884594Y-86102710D01*
X128793741Y-86168719D01*
X128725354Y-86218406D01*
X128725352Y-86218408D01*
X128725351Y-86218408D01*
X128586174Y-86357585D01*
X128586174Y-86357586D01*
X128586172Y-86357588D01*
X128536485Y-86425975D01*
X128470476Y-86516828D01*
X128381117Y-86692204D01*
X128320290Y-86879407D01*
X128289500Y-87073811D01*
X128289500Y-87270656D01*
X128320290Y-87465060D01*
X128381117Y-87652263D01*
X128470476Y-87827639D01*
X128586172Y-87986880D01*
X128725354Y-88126062D01*
X128884595Y-88241758D01*
X129021959Y-88311748D01*
X129072755Y-88359722D01*
X129089550Y-88427543D01*
X129067013Y-88493678D01*
X129021959Y-88532718D01*
X128884593Y-88602709D01*
X128793740Y-88668718D01*
X128725353Y-88718405D01*
X128725351Y-88718407D01*
X128725350Y-88718407D01*
X128586173Y-88857584D01*
X128586173Y-88857585D01*
X128586171Y-88857587D01*
X128536484Y-88925974D01*
X128470475Y-89016827D01*
X128381116Y-89192203D01*
X128320289Y-89379406D01*
X128289499Y-89573810D01*
X105390499Y-89573810D01*
X105359708Y-89379406D01*
X105298881Y-89192203D01*
X105209522Y-89016827D01*
X105093827Y-88857587D01*
X104954645Y-88718405D01*
X104795404Y-88602709D01*
X104658039Y-88532718D01*
X104607243Y-88484743D01*
X104590448Y-88416922D01*
X104612985Y-88350787D01*
X104658038Y-88311749D01*
X104795405Y-88241758D01*
X104954646Y-88126062D01*
X105093828Y-87986880D01*
X105209524Y-87827639D01*
X105298884Y-87652259D01*
X105359709Y-87465060D01*
X105390500Y-87270656D01*
X105390500Y-87073811D01*
X105359709Y-86879407D01*
X105298882Y-86692204D01*
X105209523Y-86516828D01*
X105093828Y-86357588D01*
X104954646Y-86218406D01*
X104795405Y-86102710D01*
X104620029Y-86013351D01*
X104432826Y-85952524D01*
X104238422Y-85921734D01*
X104238417Y-85921734D01*
X104041583Y-85921734D01*
X104041578Y-85921734D01*
X103847173Y-85952524D01*
X103659970Y-86013351D01*
X103484594Y-86102710D01*
X103393741Y-86168719D01*
X103325354Y-86218406D01*
X103325352Y-86218408D01*
X103325351Y-86218408D01*
X103186174Y-86357585D01*
X103186174Y-86357586D01*
X103186172Y-86357588D01*
X103136485Y-86425975D01*
X103070476Y-86516828D01*
X102981117Y-86692204D01*
X102920290Y-86879407D01*
X102889500Y-87073811D01*
X102889500Y-87270656D01*
X102920290Y-87465060D01*
X102981117Y-87652263D01*
X103070476Y-87827639D01*
X103186172Y-87986880D01*
X103325354Y-88126062D01*
X103484595Y-88241758D01*
X103621959Y-88311748D01*
X103672755Y-88359722D01*
X103689550Y-88427543D01*
X103667013Y-88493678D01*
X103621959Y-88532718D01*
X103484593Y-88602709D01*
X103393740Y-88668718D01*
X103325353Y-88718405D01*
X103325351Y-88718407D01*
X103325350Y-88718407D01*
X103186173Y-88857584D01*
X103186173Y-88857585D01*
X103186171Y-88857587D01*
X103136484Y-88925974D01*
X103070475Y-89016827D01*
X102981116Y-89192203D01*
X102920289Y-89379406D01*
X102889499Y-89573810D01*
X79990499Y-89573810D01*
X79959708Y-89379406D01*
X79898881Y-89192203D01*
X79809522Y-89016827D01*
X79693827Y-88857587D01*
X79554645Y-88718405D01*
X79395404Y-88602709D01*
X79258039Y-88532718D01*
X79207243Y-88484743D01*
X79190448Y-88416922D01*
X79212985Y-88350787D01*
X79258038Y-88311749D01*
X79395405Y-88241758D01*
X79554646Y-88126062D01*
X79693828Y-87986880D01*
X79809524Y-87827639D01*
X79898884Y-87652259D01*
X79959709Y-87465060D01*
X79990500Y-87270656D01*
X79990500Y-87073811D01*
X79959709Y-86879407D01*
X79898882Y-86692204D01*
X79809523Y-86516828D01*
X79693828Y-86357588D01*
X79554646Y-86218406D01*
X79395405Y-86102710D01*
X79220029Y-86013351D01*
X79032826Y-85952524D01*
X78838422Y-85921734D01*
X78838417Y-85921734D01*
X78641583Y-85921734D01*
X78641578Y-85921734D01*
X78447173Y-85952524D01*
X78259970Y-86013351D01*
X78084594Y-86102710D01*
X77993741Y-86168719D01*
X77925354Y-86218406D01*
X77925352Y-86218408D01*
X77925351Y-86218408D01*
X77786174Y-86357585D01*
X77786174Y-86357586D01*
X77786172Y-86357588D01*
X77736485Y-86425975D01*
X77670476Y-86516828D01*
X77581117Y-86692204D01*
X77520290Y-86879407D01*
X77489500Y-87073811D01*
X77489500Y-87270656D01*
X77520290Y-87465060D01*
X77581117Y-87652263D01*
X77670476Y-87827639D01*
X77786172Y-87986880D01*
X77925354Y-88126062D01*
X78084595Y-88241758D01*
X78221959Y-88311748D01*
X78272755Y-88359722D01*
X78289550Y-88427543D01*
X78267013Y-88493678D01*
X78221959Y-88532718D01*
X78084593Y-88602709D01*
X77993740Y-88668718D01*
X77925353Y-88718405D01*
X77925351Y-88718407D01*
X77925350Y-88718407D01*
X77786173Y-88857584D01*
X77786173Y-88857585D01*
X77786171Y-88857587D01*
X77736484Y-88925974D01*
X77670475Y-89016827D01*
X77581116Y-89192203D01*
X77520289Y-89379406D01*
X77489499Y-89573810D01*
X61214500Y-89573810D01*
X61214500Y-78662706D01*
X61214618Y-78657297D01*
X61220952Y-78512224D01*
X63705500Y-78512224D01*
X63705500Y-78807775D01*
X63735503Y-79035662D01*
X63744076Y-79100775D01*
X63782321Y-79243507D01*
X63820566Y-79386242D01*
X63933660Y-79659275D01*
X63933665Y-79659286D01*
X64081425Y-79915212D01*
X64081436Y-79915228D01*
X64261339Y-80149682D01*
X64261345Y-80149689D01*
X64470310Y-80358654D01*
X64470316Y-80358659D01*
X64704780Y-80538570D01*
X64704787Y-80538574D01*
X64960713Y-80686334D01*
X64960718Y-80686336D01*
X64960721Y-80686338D01*
X65097240Y-80742886D01*
X65233757Y-80799433D01*
X65233758Y-80799433D01*
X65233760Y-80799434D01*
X65519225Y-80875924D01*
X65812232Y-80914500D01*
X65812239Y-80914500D01*
X66107761Y-80914500D01*
X66107768Y-80914500D01*
X66400775Y-80875924D01*
X66686240Y-80799434D01*
X66959279Y-80686338D01*
X67215220Y-80538570D01*
X67449684Y-80358659D01*
X67658659Y-80149684D01*
X67838570Y-79915220D01*
X67986338Y-79659279D01*
X68099434Y-79386240D01*
X68175924Y-79100775D01*
X68214500Y-78807768D01*
X68214500Y-78512232D01*
X68214499Y-78512224D01*
X218805500Y-78512224D01*
X218805500Y-78807775D01*
X218835503Y-79035662D01*
X218844076Y-79100775D01*
X218882321Y-79243507D01*
X218920566Y-79386242D01*
X219033660Y-79659275D01*
X219033665Y-79659286D01*
X219181425Y-79915212D01*
X219181436Y-79915228D01*
X219361339Y-80149682D01*
X219361345Y-80149689D01*
X219570310Y-80358654D01*
X219570316Y-80358659D01*
X219804780Y-80538570D01*
X219804787Y-80538574D01*
X220060713Y-80686334D01*
X220060718Y-80686336D01*
X220060721Y-80686338D01*
X220197240Y-80742886D01*
X220333757Y-80799433D01*
X220333758Y-80799433D01*
X220333760Y-80799434D01*
X220619225Y-80875924D01*
X220912232Y-80914500D01*
X220912239Y-80914500D01*
X221207761Y-80914500D01*
X221207768Y-80914500D01*
X221500775Y-80875924D01*
X221786240Y-80799434D01*
X222059279Y-80686338D01*
X222315220Y-80538570D01*
X222549684Y-80358659D01*
X222758659Y-80149684D01*
X222938570Y-79915220D01*
X223086338Y-79659279D01*
X223199434Y-79386240D01*
X223275924Y-79100775D01*
X223314500Y-78807768D01*
X223314500Y-78512232D01*
X223313253Y-78502764D01*
X223305342Y-78442672D01*
X223275924Y-78219225D01*
X223199434Y-77933760D01*
X223086338Y-77660721D01*
X223086336Y-77660718D01*
X223086334Y-77660713D01*
X222938574Y-77404787D01*
X222938570Y-77404780D01*
X222758659Y-77170316D01*
X222758654Y-77170310D01*
X222549689Y-76961345D01*
X222549682Y-76961339D01*
X222315228Y-76781436D01*
X222315226Y-76781434D01*
X222315220Y-76781430D01*
X222315215Y-76781427D01*
X222315212Y-76781425D01*
X222059286Y-76633665D01*
X222059275Y-76633660D01*
X221786242Y-76520566D01*
X221643507Y-76482321D01*
X221500775Y-76444076D01*
X221435662Y-76435503D01*
X221207775Y-76405500D01*
X221207768Y-76405500D01*
X220912232Y-76405500D01*
X220912224Y-76405500D01*
X220651781Y-76439789D01*
X220619225Y-76444076D01*
X220547858Y-76463198D01*
X220333757Y-76520566D01*
X220060724Y-76633660D01*
X220060713Y-76633665D01*
X219804787Y-76781425D01*
X219804771Y-76781436D01*
X219570317Y-76961339D01*
X219570310Y-76961345D01*
X219361345Y-77170310D01*
X219361339Y-77170317D01*
X219181436Y-77404771D01*
X219181425Y-77404787D01*
X219033665Y-77660713D01*
X219033660Y-77660724D01*
X218920566Y-77933757D01*
X218844076Y-78219226D01*
X218805500Y-78512224D01*
X68214499Y-78512224D01*
X68213253Y-78502764D01*
X68205342Y-78442672D01*
X68175924Y-78219225D01*
X68099434Y-77933760D01*
X67986338Y-77660721D01*
X67986336Y-77660718D01*
X67986334Y-77660713D01*
X67838574Y-77404787D01*
X67838570Y-77404780D01*
X67658659Y-77170316D01*
X67658654Y-77170310D01*
X67449689Y-76961345D01*
X67449682Y-76961339D01*
X67215228Y-76781436D01*
X67215226Y-76781434D01*
X67215220Y-76781430D01*
X67215215Y-76781427D01*
X67215212Y-76781425D01*
X66959286Y-76633665D01*
X66959275Y-76633660D01*
X66686242Y-76520566D01*
X66543507Y-76482321D01*
X66400775Y-76444076D01*
X66335662Y-76435503D01*
X66107775Y-76405500D01*
X66107768Y-76405500D01*
X65812232Y-76405500D01*
X65812224Y-76405500D01*
X65551781Y-76439789D01*
X65519225Y-76444076D01*
X65447858Y-76463198D01*
X65233757Y-76520566D01*
X64960724Y-76633660D01*
X64960713Y-76633665D01*
X64704787Y-76781425D01*
X64704771Y-76781436D01*
X64470317Y-76961339D01*
X64470310Y-76961345D01*
X64261345Y-77170310D01*
X64261339Y-77170317D01*
X64081436Y-77404771D01*
X64081425Y-77404787D01*
X63933665Y-77660713D01*
X63933660Y-77660724D01*
X63820566Y-77933757D01*
X63744076Y-78219226D01*
X63705500Y-78512224D01*
X61220952Y-78512224D01*
X61221365Y-78502764D01*
X61221365Y-78502763D01*
X61232322Y-78251787D01*
X61233262Y-78241054D01*
X61285889Y-77841308D01*
X61287762Y-77830688D01*
X61375032Y-77437035D01*
X61377819Y-77426635D01*
X61499068Y-77042081D01*
X61502752Y-77031960D01*
X61657051Y-76659448D01*
X61661609Y-76649674D01*
X61847790Y-76292024D01*
X61853172Y-76282703D01*
X62069808Y-75942653D01*
X62075999Y-75933810D01*
X62321449Y-75613934D01*
X62328387Y-75605665D01*
X62600777Y-75308405D01*
X62608405Y-75300777D01*
X62905665Y-75028387D01*
X62913934Y-75021449D01*
X63233810Y-74775999D01*
X63242653Y-74769808D01*
X63582703Y-74553172D01*
X63592024Y-74547790D01*
X63949674Y-74361609D01*
X63959448Y-74357051D01*
X64331960Y-74202752D01*
X64342081Y-74199068D01*
X64726635Y-74077819D01*
X64737035Y-74075032D01*
X65130688Y-73987762D01*
X65141308Y-73985889D01*
X65541054Y-73933262D01*
X65551787Y-73932322D01*
X65945134Y-73915149D01*
X65957298Y-73914618D01*
X65962706Y-73914500D01*
X66004875Y-73914500D01*
X221015125Y-73914500D01*
X221057294Y-73914500D01*
X221062702Y-73914617D01*
G37*
%TD.AperFunction*%
%TD*%
M02*
